<svg width="132" height="133" viewBox="0 0 132 133" fill="none" xmlns="http://www.w3.org/2000/svg">
<path d="M80.4674 89.2449C77.3497 90.2238 74.5783 92.3508 72.5594 95.315C70.1809 98.9416 69.0579 103.495 69.4173 108.058C69.6418 110.233 70.0862 112.369 70.7412 114.419C70.7412 114.419 71.0262 115.305 72.8325 119.896" stroke="#866AAB" stroke-width="4" stroke-miterlimit="10"/>
<path d="M101.363 103.373L94.625 119.725" stroke="#866AAB" stroke-width="4" stroke-miterlimit="10"/>
<path d="M82.2244 71.0425C83.5384 69.4172 84.4225 67.4752 84.7924 65.4009C85.0801 63.4057 84.9241 61.3699 84.3349 59.4451C83.4594 56.2896 81.9308 53.3635 79.8513 50.8653C77.7724 48.3671 75.1919 46.3552 72.2855 44.9661C65 42.0035 58.481 44.6127 57.0734 45.2156C55.63 43.199 45.91 29.71 37.9161 22.9722C35.8 21.1983 33.3696 19.8574 30.7576 19.0225C28.6144 18.3413 24.5399 17.0463 22.4601 19.0641C21.2263 20.2611 21.1828 22.1503 21.1281 24.521C21.1205 26.6191 21.4327 28.7055 22.0534 30.7054C23.5417 35.1275 32.5975 43.1869 46.783 50.2463C42.2511 55.5638 39.0851 61.9507 37.5704 68.8307C36.7785 72.5638 33.9029 86.1181 40.1532 96.8364C41.8194 99.6933 44.2987 102.631 43.6511 106.457C43.0301 110.127 40.0178 111.754 40.4786 114.631C40.8455 116.921 43.169 118.472 45.1967 119.453L65.5336 119.952C67.794 119.934 70.0546 119.915 72.3152 119.896L105.72 119.62C106.987 119.083 108.09 118.208 108.915 117.087C112.25 112.481 107.97 103.65 104.56 103.319C103.36 103.201 102.759 104.17 101.977 103.776C100.587 103.076 101.518 99.5235 101.632 94.5876C101.734 90.133 101.903 85.1365 99.0688 81.1789C97.7792 79.3785 96.2427 78.3094 93.8222 76.6261C91.353 74.9093 85.6903 71.8891 84.3961 71.4816C83.2928 71.1367 82.1435 70.9714 80.9895 70.9931C75.7106 73.0984 70.0533 74.0285 64.3947 73.7198" stroke="#866AAB" stroke-width="4" stroke-miterlimit="10"/>
<path d="M35.9091 21.5223C34.7256 18.0951 35.0973 14.8776 36.783 13.4773C38.3507 12.175 40.5974 12.8241 42.0486 13.2434C47.4316 14.7987 50.6023 19.6023 51.9529 22.016C55.9666 29.7056 59.2447 35.9859 63.2584 43.6755" stroke="#866AAB" stroke-width="4" stroke-miterlimit="10"/>
<path d="M84.2222 61.5689C83.2617 61.2096 82.2506 61.1763 81.2783 61.4719C80.4087 61.742 79.5378 61.9933 79.0829 62.9374C78.2337 64.7008 79.4074 67.649 80.3639 69.1427C80.8991 69.9728 81.5495 70.6508 82.2769 71.1386" stroke="#866AAB" stroke-width="4" stroke-miterlimit="10"/>
<path d="M60.3967 59.8661C61.5131 59.8661 62.4183 58.5189 62.4183 56.857C62.4183 55.1951 61.5131 53.8479 60.3967 53.8479C59.2802 53.8479 58.375 55.1951 58.375 56.857C58.375 58.5189 59.2802 59.8661 60.3967 59.8661Z" stroke="#866AAB" stroke-width="4" stroke-miterlimit="10"/>
</svg>
