<svg width="132" height="132" viewBox="0 0 132 132" fill="none" xmlns="http://www.w3.org/2000/svg">
<path d="M62.8258 65.1285L62.3078 63.7547C53.7088 40.8249 64.2763 17.578 63.9655 19.48C63.7168 21.0017 66.9008 24.9747 68.5241 26.7711C72.0881 30.9978 87.8285 40.2965 95.2534 44.4176C105.034 49.3206 111.001 59.986 112.763 64.7058C121.382 85.8392 110.345 102.394 103.749 108.03L103.438 108.346M62.8258 65.1285C57.922 65.7272 46.353 67.3472 39.308 69.0383C33.6099 69.3905 21.1361 69.6723 16.8262 67.9818C18.7947 76.0472 26.9171 94.3562 43.6594 103.063C53.5362 108.628 79.3195 117.476 103.438 108.346M62.8258 65.1285C90.5914 63.945 101.47 93.4471 103.438 108.346" stroke="#866AAB" stroke-width="5.5"/>
<path d="M74.2695 47.8577C73.4848 47.238 72.3459 47.3717 71.7265 48.1563C71.107 48.9408 71.2407 50.0792 72.0253 50.6989L74.2695 47.8577ZM105.066 108.144C108.79 98.3461 106.861 73.5996 74.2695 47.8577L72.0253 50.6989C103.864 75.8464 104.652 99.0446 101.681 106.858L105.066 108.144Z" fill="#866AAB"/>
<path d="M39.6083 82.0271C38.6118 82.1087 37.87 82.9823 37.9514 83.9789C38.0329 84.9756 38.9067 85.7175 39.9031 85.6358L39.6083 82.0271ZM104.614 107.212C95.7194 97.7524 70.3613 79.5151 39.6083 82.0271L39.9031 85.6358C69.1639 83.2456 93.5167 100.696 101.976 109.692L104.614 107.212Z" fill="#866AAB"/>
</svg>
