<svg width="132" height="133" viewBox="0 0 132 133" fill="none" xmlns="http://www.w3.org/2000/svg">
<path fill-rule="evenodd" clip-rule="evenodd" d="M102.857 14.1282C102.857 16.6053 100.569 19.6708 97.7272 21.0019C93.8268 22.8267 90.6782 22.7537 80.4167 20.5991C64.2555 17.2061 55.3162 18.5111 48.7628 25.222C43.8272 30.2765 42.5677 37.0815 45.4373 43.193C47.1898 46.9245 50.4437 49.3154 55.9972 50.9501C61.12 52.4583 63.1902 54.1863 64.6755 58.1968C66.299 62.5797 65.6665 65.8224 62.2989 70.375C58.5568 75.4353 57.2742 78.2416 57.2742 81.3679C57.2742 85.0345 60.7007 88.5406 65.0051 89.2785C73.7417 90.7768 74.6547 94.7542 68.4299 104.205C64.7022 109.864 63.9188 114.926 66.3194 117.851L67.7953 119.651L66.7473 117.482C66.17 116.289 65.6966 114.645 65.6938 113.828C65.6896 112.251 69.1883 106.089 70.5983 105.191C71.0598 104.897 72.3533 103.168 73.4724 101.348C75.0016 98.8606 75.5072 97.1623 75.5072 94.51C75.5072 90.0566 73.3124 87.5492 67.7835 85.6882C65.6671 84.976 63.5423 84.0715 63.0598 83.6778C61.2245 82.1789 62.1137 78.9625 65.5472 74.6816C69.6003 69.6266 70.8682 66.6425 70.8682 62.1546C70.8682 54.0931 66.4557 48.2938 58.2476 45.5703C55.1038 44.5262 52.7166 43.1966 51.4101 41.7608C49.6211 39.7942 49.4353 39.15 49.7025 35.8321C50.0861 31.0625 52.2706 27.9716 56.8948 25.6558C62.1039 23.048 66.9428 22.7436 79.3358 24.2453C88.2537 25.3261 90.8237 25.4071 93.7886 24.7015C99.6145 23.3147 102.55 20.4762 103.824 14.9958C104.099 13.8159 103.996 13.0076 103.572 13.0076C103.179 13.0076 102.857 13.5115 102.857 14.1282ZM38.6903 52.7259C28.9811 55.1631 24.9767 64.8665 31.3857 70.4264C33.1845 71.9872 34.1923 72.2801 37.5171 72.2084L41.4954 72.1241L38.0465 71.5284C34.024 70.8345 31.5688 68.6674 30.9012 65.223C30.4916 63.1103 30.756 62.5428 33.3198 60.0282C37.51 55.9186 43.4492 55.2383 47.0018 58.46C50.4178 61.5574 51.2474 67.4957 48.9143 72.1419C48.1737 73.6171 45.7823 76.6137 43.6007 78.8012C38.8733 83.5396 37.5619 85.8956 37.4182 89.9033C37.2709 94.015 38.7562 97.2998 41.5761 99.0963C43.5796 100.373 45.1883 100.626 51.9781 100.73C56.3955 100.797 59.7659 100.601 59.4671 100.293C58.7855 99.592 51.4662 98.332 48.0362 98.3268C44.1526 98.3202 41.1448 95.4296 41.1448 91.703C41.1448 87.8737 41.7437 86.8797 47.7347 80.7662C54.5532 73.8087 56.2861 68.8748 54.3885 61.8271C53.028 56.7739 46.6091 51.8112 41.846 52.1279C41.2675 52.1662 39.8474 52.4352 38.6903 52.7259Z" fill="#866AAB"/>
</svg>
