<svg width="132" height="132" viewBox="0 0 132 132" fill="none" xmlns="http://www.w3.org/2000/svg">
<path d="M76.9017 115.202C74.2136 115.202 71.6902 113.94 69.6055 112.843C68.2889 112.184 66.6981 111.362 65.8752 111.362C65.0523 111.362 63.4066 112.184 62.1448 112.843C59.5116 114.214 56.2201 115.86 52.7092 114.927C49.0885 113.995 47.1136 110.813 45.4679 108.29C44.7547 107.137 43.7673 105.601 43.109 105.217C42.4507 104.833 40.6952 104.779 39.214 104.669C36.2517 104.504 32.5762 104.34 29.943 101.761C27.3098 99.0733 27.1452 95.3978 26.9806 92.4355C26.9258 91.0091 26.816 89.1988 26.432 88.5405C26.1029 87.9371 24.512 86.9496 23.4148 86.2365C20.8913 84.5907 17.7644 82.5609 16.777 78.9952C15.8444 75.4842 17.4901 72.1927 18.8616 69.5595C19.5199 68.2429 20.3428 66.652 20.3428 65.8292C20.3428 65.0063 19.5199 63.3605 18.8616 62.0988C17.4901 59.4656 15.8444 56.1741 16.777 52.6632C17.7096 49.0425 20.8913 47.0676 23.4148 45.4219C24.5669 44.7087 26.1029 43.7213 26.4869 43.063C26.8709 42.4047 26.9258 40.6492 27.0355 39.168C27.2001 36.2057 27.3646 32.5301 29.943 29.8969C32.631 27.2637 36.3065 27.0992 39.2689 26.9346C40.6952 26.8797 42.5055 26.77 43.1638 26.386C43.7673 26.0569 44.7547 24.466 45.4679 23.3688C47.1136 20.8453 49.1434 17.7184 52.7092 16.7309C56.2201 15.7984 59.5116 17.4441 62.1448 18.8156C63.4614 19.4739 65.0523 20.2967 65.8752 20.2967C66.6981 20.2967 68.3438 19.4739 69.6055 18.8156C72.2387 17.499 75.5302 15.7984 79.0412 16.7309C82.6618 17.6635 84.6367 20.8453 86.2825 23.3688C86.9956 24.5208 87.9831 26.0569 88.6414 26.4409C89.2997 26.8249 91.0552 26.8797 92.5363 26.9895C95.4987 27.154 99.1742 27.3186 101.807 29.8969C104.441 32.585 104.605 36.2605 104.77 39.2229C104.825 40.6492 104.934 42.4595 105.318 43.1178C105.647 43.7213 107.238 44.7087 108.336 45.4219C110.859 47.0676 113.986 49.0974 114.973 52.6632C115.906 56.1741 114.26 59.4656 112.889 62.0988C112.23 63.4154 111.408 65.0063 111.408 65.8292C111.408 66.652 112.23 68.2978 112.889 69.5595C114.26 72.1927 115.906 75.4842 114.973 78.9952C114.041 82.6158 110.859 84.5907 108.336 86.2365C107.184 86.9496 105.647 87.9371 105.263 88.5954C104.879 89.2537 104.825 91.0091 104.715 92.4903C104.55 95.4527 104.386 99.1282 101.807 101.761C99.1193 104.395 95.4438 104.559 92.4815 104.724C91.0552 104.779 89.2448 104.888 88.5865 105.272C87.9831 105.601 86.9956 107.192 86.2825 108.29C84.6367 110.813 82.607 113.94 79.0412 114.927C78.328 115.147 77.6149 115.202 76.9017 115.202ZM54.9035 24.6854H54.8487C54.3001 24.9048 53.0383 26.77 52.4349 27.8123C51.1183 29.8421 49.6371 32.1461 47.2782 33.5176C44.8644 34.8891 42.1215 35.0536 39.6529 35.1633C38.446 35.2182 36.1968 35.3279 35.7031 35.7119C35.3739 36.1508 35.2642 38.3451 35.2094 39.552C35.0997 42.0206 34.9351 44.7636 33.5636 47.1225C32.1922 49.4814 29.8881 50.9626 27.8584 52.2792C26.816 52.9375 24.9509 54.1443 24.7314 54.7478C24.6766 55.3512 25.6092 57.2164 26.1577 58.3136C27.2549 60.5079 28.5715 62.9765 28.5715 65.7743C28.5715 68.5721 27.3098 71.0407 26.1577 73.235C25.6092 74.3322 24.6217 76.1974 24.7314 76.8008C24.9509 77.3494 26.816 78.6111 27.8584 79.2146C29.8881 80.5312 32.1922 82.0124 33.5636 84.3713C34.9351 86.785 35.0997 89.528 35.2094 91.9966C35.2642 93.2035 35.3739 95.4527 35.758 95.9464C36.1968 96.2755 38.3912 96.3853 39.598 96.4401C42.0667 96.5498 44.8096 96.7144 47.1685 98.0859C49.5274 99.4573 51.0086 101.761 52.3252 103.791C52.9835 104.833 54.1904 106.699 54.7938 106.918C55.3424 107.083 57.2624 106.04 58.3596 105.492C60.5539 104.395 63.0225 103.078 65.8203 103.078C68.6181 103.078 71.0867 104.34 73.2811 105.492C74.3782 106.04 76.1337 107.083 76.8468 106.918C77.3954 106.699 78.6572 104.833 79.2606 103.791C80.5772 101.761 82.0584 99.4573 84.4173 98.0859C86.8311 96.7144 89.574 96.5498 92.0426 96.4401C93.2495 96.3853 95.4987 96.2755 95.9924 95.8915C96.3216 95.4527 96.4313 93.2583 96.4861 92.0514C96.5958 89.5828 96.7604 86.8399 98.1319 84.481C99.5033 82.1221 101.807 80.6409 103.837 79.3243C104.879 78.666 106.745 77.4591 106.964 76.8557C107.019 76.2522 106.086 74.3871 105.538 73.2899C104.441 71.0956 103.124 68.6269 103.124 65.8292C103.124 63.0314 104.386 60.5628 105.538 58.3684C106.086 57.2713 107.019 55.4061 106.964 54.8026C106.745 54.1992 104.825 52.9923 103.837 52.334C101.807 51.0174 99.5033 49.5362 98.1319 47.1773C96.7604 44.7636 96.5958 42.0206 96.4861 39.552C96.4313 38.3451 96.3216 36.0959 95.9375 35.6022C95.4987 35.2731 93.3044 35.1634 92.0975 35.1085C89.6288 34.9988 86.8859 34.8342 84.527 33.4627C82.1681 32.0913 80.6869 29.7872 79.3703 27.7575C78.712 26.7152 77.5051 24.85 76.9017 24.6305C76.3531 24.466 74.4331 25.5083 73.3359 26.0569C71.1416 27.154 68.673 28.4706 65.8752 28.4706C63.0774 28.4706 60.6088 27.2089 58.4145 26.0569C57.3173 25.5083 55.5618 24.6305 54.9035 24.6305V24.6854ZM57.5916 85.0844C56.5007 85.0835 55.4549 84.6494 54.6841 83.8776L40.9146 70.1081C39.3237 68.5172 39.3237 65.884 40.9146 64.2931C42.5055 62.7022 45.1387 62.7022 46.7296 64.2931L57.5916 75.1551L84.9659 47.7808C86.5568 46.1899 89.19 46.1899 90.7809 47.7808C92.3718 49.3717 92.3718 52.0049 90.7809 53.5958L60.4991 83.8776C59.7282 84.6494 58.6824 85.0835 57.5916 85.0844Z" fill="#866AAB"/>
</svg>
