<svg width="205" height="172" viewBox="0 0 205 172" fill="none" xmlns="http://www.w3.org/2000/svg">
<mask id="mask0_2623_16" style="mask-type:luminance" maskUnits="userSpaceOnUse" x="19" y="107" width="27" height="2">
<path d="M19.6172 107.667H45.5443V108.901H19.6172V107.667Z" fill="white"/>
</mask>
<g mask="url(#mask0_2623_16)">
<mask id="mask1_2623_16" style="mask-type:luminance" maskUnits="userSpaceOnUse" x="19" y="107" width="27" height="2">
<path d="M20.2009 108.876L28.5687 108.884C33.0145 108.888 37.4603 108.891 41.9026 108.896L44.9592 108.899C45.7361 108.899 45.7361 107.691 44.9592 107.691L36.5902 107.683C32.1444 107.678 27.6987 107.675 23.2575 107.671L20.2009 107.667C19.4239 107.667 19.4239 108.876 20.2009 108.876Z" fill="white"/>
</mask>
<g mask="url(#mask1_2623_16)">
<path d="M19.6172 107.667H45.5443V108.901H19.6172V107.667Z" fill="#231F20"/>
</g>
</g>
<mask id="mask2_2623_16" style="mask-type:luminance" maskUnits="userSpaceOnUse" x="62" y="105" width="8" height="7">
<path d="M62.7197 105.063H69.1101V111.541H62.7197V105.063Z" fill="white"/>
</mask>
<g mask="url(#mask2_2623_16)">
<mask id="mask3_2623_16" style="mask-type:luminance" maskUnits="userSpaceOnUse" x="62" y="105" width="8" height="7">
<path d="M67.1754 108.239L66.9744 106.268C66.8824 105.736 66.6086 105.313 65.9634 105.309C65.3512 105.305 65.0173 105.539 64.873 106.236C64.5947 107.579 64.5981 108.932 64.8605 110.279C65.0059 111.024 65.3399 111.286 65.9555 111.27C66.5439 111.254 66.8778 110.944 66.9948 110.202L67.1799 108.244M69.0609 108.352C69.0087 110.355 67.7354 111.613 65.8385 111.536C63.886 111.46 62.6978 110.145 62.758 108.134C62.8182 106.252 64.1358 105.026 66.0566 105.071C67.8887 105.112 69.1086 106.45 69.0609 108.352Z" fill="white"/>
</mask>
<g mask="url(#mask3_2623_16)">
<path d="M53.085 100.964H85.9204V113.558H53.085V100.964Z" fill="#231F20"/>
</g>
</g>
<mask id="mask4_2623_16" style="mask-type:luminance" maskUnits="userSpaceOnUse" x="55" y="102" width="7" height="10">
<path d="M55.0518 102.932H61.1968V111.345H55.0518V102.932Z" fill="white"/>
</mask>
<g mask="url(#mask4_2623_16)">
<mask id="mask5_2623_16" style="mask-type:luminance" maskUnits="userSpaceOnUse" x="55" y="102" width="7" height="10">
<path d="M55.0996 102.979H58.1403C57.4111 103.338 57.5758 104.011 57.5758 104.611L57.5724 110.396C57.5724 110.609 57.5724 110.818 57.5724 111.084L59.7385 111.056C60.0122 111.024 60.3143 110.734 60.4881 110.484C60.7539 110.101 60.9232 109.653 61.1969 109.102V111.303H55.0996C55.7073 111.032 55.6789 110.516 55.6755 109.976V104.132C55.6789 103.644 55.6312 103.233 55.0996 102.979Z" fill="white"/>
</mask>
<g mask="url(#mask5_2623_16)">
<path d="M53.0859 100.964H85.9214V113.558H53.0859V100.964Z" fill="#231F20"/>
</g>
</g>
<mask id="mask6_2623_16" style="mask-type:luminance" maskUnits="userSpaceOnUse" x="78" y="104" width="6" height="8">
<path d="M78.1553 104.998H83.955V111.59H78.1553V104.998Z" fill="white"/>
</mask>
<g mask="url(#mask6_2623_16)">
<mask id="mask7_2623_16" style="mask-type:luminance" maskUnits="userSpaceOnUse" x="78" y="105" width="6" height="7">
<path d="M82.339 107.884L82.2095 106.071C82.1493 105.664 81.896 105.357 81.4292 105.313C80.9374 105.265 80.5387 105.45 80.4058 105.918L80.015 107.889L82.339 107.884ZM83.8656 108.166H80.1002C80.1354 109.094 80.1525 110.008 81.026 110.488C82.021 111.037 82.9592 110.746 83.8043 109.96C83.6032 110.67 82.9024 111.259 82.105 111.444C80.3092 111.862 78.7224 110.952 78.3113 109.267C77.841 107.336 78.7747 105.587 80.5671 105.151C81.5416 104.914 82.4924 105.01 83.2454 105.785C83.8815 106.442 84.0337 107.24 83.8656 108.166Z" fill="white"/>
</mask>
<g mask="url(#mask7_2623_16)">
<path d="M53.0859 100.964H85.9214V113.558H53.0859V100.964Z" fill="#231F20"/>
</g>
</g>
<mask id="mask8_2623_16" style="mask-type:luminance" maskUnits="userSpaceOnUse" x="70" y="105" width="7" height="7">
<path d="M70.5361 105.194H76.8277V111.394H70.5361V105.194Z" fill="white"/>
</mask>
<g mask="url(#mask8_2623_16)">
<mask id="mask9_2623_16" style="mask-type:luminance" maskUnits="userSpaceOnUse" x="70" y="105" width="7" height="7">
<path d="M70.5508 105.24H73.5029C72.8986 105.514 73.0156 105.921 73.2087 106.401C73.6119 107.397 73.9743 108.412 74.4138 109.598L74.6183 109.053C74.9931 108.005 75.2828 107.151 75.6088 106.309C75.7905 105.837 75.8223 105.462 75.2226 105.265H76.8253C76.0438 105.389 75.9597 106.051 75.7621 106.611L74.2844 110.887C74.1958 111.149 74.131 111.379 73.7448 111.379L73.2814 111.173C72.5692 109.444 71.9774 107.968 71.3402 106.514L70.5508 105.237" fill="white"/>
</mask>
<g mask="url(#mask9_2623_16)">
<path d="M53.0859 100.964H85.9214V113.558H53.0859V100.964Z" fill="#231F20"/>
</g>
</g>
<mask id="mask10_2623_16" style="mask-type:luminance" maskUnits="userSpaceOnUse" x="104" y="105" width="8" height="7">
<path d="M104.806 105.063H111.139V111.555H104.806V105.063Z" fill="white"/>
</mask>
<g mask="url(#mask10_2623_16)">
<mask id="mask11_2623_16" style="mask-type:luminance" maskUnits="userSpaceOnUse" x="104" y="105" width="8" height="7">
<path d="M108.7 105.555C109.296 105.43 110.013 105.281 110.799 105.111V106.595C110.799 107.832 110.774 109.073 110.807 110.311C110.815 110.641 110.992 110.964 111.109 111.335C110.557 111.375 109.872 111.428 109.155 111.48L109.043 111.029C108.455 111.076 107.912 111.371 107.339 111.476C105.978 111.722 105.181 111.029 105.165 109.642L105.201 106.692C105.189 106.321 104.991 105.954 104.858 105.526C105.431 105.414 106.164 105.268 107.017 105.1V105.575C107.005 107.156 106.993 108.53 106.977 109.908C106.972 110.323 107.013 110.807 107.492 110.828C107.972 110.847 108.455 110.641 108.926 110.492L109.007 110.21C109.022 108.88 109.046 107.699 109.019 106.519C109.01 106.224 108.833 105.93 108.704 105.555" fill="white"/>
</mask>
<g mask="url(#mask11_2623_16)">
<path d="M87.1152 103.016H119.932V116.426H87.1152V103.016Z" fill="#231F20"/>
</g>
</g>
<mask id="mask12_2623_16" style="mask-type:luminance" maskUnits="userSpaceOnUse" x="96" y="105" width="8" height="7">
<path d="M96.8506 105.059H103.184V111.555H96.8506V105.059Z" fill="white"/>
</mask>
<g mask="url(#mask12_2623_16)">
<mask id="mask13_2623_16" style="mask-type:luminance" maskUnits="userSpaceOnUse" x="96" y="105" width="8" height="7">
<path d="M98.745 108.272L99.0028 110.38C99.1278 111.029 99.4867 111.271 100.066 111.266C100.666 111.262 101.045 110.896 101.064 110.38L101.053 106.16C101.029 105.644 100.634 105.297 100.03 105.301C99.4344 105.305 99.0994 105.632 99.0028 106.164L98.745 108.272ZM100.042 105.059C101.934 105.059 103.179 106.337 103.179 108.272C103.179 110.263 101.939 111.545 100.026 111.532C98.1089 111.516 96.8651 110.226 96.8731 108.256C96.881 106.35 98.1577 105.059 100.042 105.059Z" fill="white"/>
</mask>
<g mask="url(#mask13_2623_16)">
<path d="M87.1152 103.016H119.932V116.426H87.1152V103.016Z" fill="#231F20"/>
</g>
</g>
<mask id="mask14_2623_16" style="mask-type:luminance" maskUnits="userSpaceOnUse" x="89" y="105" width="7" height="10">
<path d="M89.1035 105.216H95.2281V114.436H89.1035V105.216Z" fill="white"/>
</mask>
<g mask="url(#mask14_2623_16)">
<mask id="mask15_2623_16" style="mask-type:luminance" maskUnits="userSpaceOnUse" x="89" y="105" width="7" height="10">
<path d="M89.1289 105.257H92.0117C91.4324 105.552 91.5608 105.959 91.7425 106.405C92.1571 107.438 92.5433 108.478 92.9942 109.65C93.4543 108.385 93.8609 107.268 94.2596 106.147C94.4004 105.756 94.3482 105.434 93.8643 105.273H95.2217C94.9922 105.648 94.6696 106.043 94.4924 106.499L92.4672 111.963C92.2378 112.565 91.9322 113.145 91.5812 113.689C91.1825 114.313 90.4976 114.576 89.9024 114.31C89.6116 114.18 89.3345 113.85 89.23 113.548L89.4186 112.902C89.9388 112.786 90.417 112.794 90.6748 112.988C91.4892 113.588 91.4642 113.616 91.9072 112.665C92.1208 112.205 92.1208 111.806 91.9118 111.335L89.8013 106.345C89.6321 105.954 89.3538 105.615 89.1289 105.257Z" fill="white"/>
</mask>
<g mask="url(#mask15_2623_16)">
<path d="M87.1152 103.016H119.932V116.426H87.1152V103.016Z" fill="#231F20"/>
</g>
</g>
<mask id="mask16_2623_16" style="mask-type:luminance" maskUnits="userSpaceOnUse" x="112" y="105" width="6" height="7">
<path d="M112.604 105.007H117.943V111.345H112.604V105.007Z" fill="white"/>
</mask>
<g mask="url(#mask16_2623_16)">
<mask id="mask17_2623_16" style="mask-type:luminance" maskUnits="userSpaceOnUse" x="112" y="105" width="6" height="7">
<path d="M115.896 111.323H112.67C113.456 111.04 113.391 110.5 113.387 109.976L113.391 106.97C113.399 106.47 113.387 106.006 112.605 105.845L114.978 105.039C115.05 105.455 115.115 105.813 115.171 106.139L116.396 105.192C117.105 104.809 117.817 105.14 117.905 105.817C117.958 106.212 117.902 106.652 117.486 106.749C117.152 106.825 116.754 106.692 116.404 106.587L115.646 106.191C115.485 106.535 115.216 106.869 115.187 107.219L115.159 109.993C115.143 110.589 115.179 111.117 115.896 111.323Z" fill="white"/>
</mask>
<g mask="url(#mask17_2623_16)">
<path d="M87.1143 103.016H119.932V116.426H87.1143V103.016Z" fill="#231F20"/>
</g>
</g>
<mask id="mask18_2623_16" style="mask-type:luminance" maskUnits="userSpaceOnUse" x="122" y="105" width="8" height="7">
<path d="M122.869 105.03H129.643V111.348H122.869V105.03Z" fill="white"/>
</mask>
<g mask="url(#mask18_2623_16)">
<mask id="mask19_2623_16" style="mask-type:luminance" maskUnits="userSpaceOnUse" x="122" y="105" width="8" height="7">
<path d="M126.82 111.31C127.243 111.055 127.331 110.708 127.327 110.274L127.319 106.67C127.315 105.961 127.089 105.682 126.526 105.671C125.845 105.658 125.298 106.11 125.298 106.694L125.309 110.298C125.317 110.629 125.487 110.95 125.599 111.341H122.966C123.542 111.039 123.474 110.515 123.474 110.011L123.477 106.824C123.485 106.372 123.437 105.989 122.881 105.796L125.064 105.038C125.137 105.32 125.2 105.57 125.281 105.867L125.604 105.626C126.308 105.384 126.839 105.123 127.383 105.086C128.467 105.014 129.071 105.642 129.091 106.73L129.099 110.097C129.099 110.858 129.099 110.858 129.635 111.313L126.82 111.31Z" fill="white"/>
</mask>
<g mask="url(#mask19_2623_16)">
<path d="M120.868 100.407H154.485V113.557H120.868V100.407Z" fill="#231F20"/>
</g>
</g>
<mask id="mask20_2623_16" style="mask-type:luminance" maskUnits="userSpaceOnUse" x="131" y="105" width="7" height="7">
<path d="M131.184 105.063H137.393V111.554H131.184V105.063Z" fill="white"/>
</mask>
<g mask="url(#mask20_2623_16)">
<mask id="mask21_2623_16" style="mask-type:luminance" maskUnits="userSpaceOnUse" x="131" y="105" width="7" height="7">
<path d="M134.74 108.097L133.817 108.363C133.029 108.697 132.675 109.524 132.993 110.245C133.165 110.64 133.483 110.841 133.89 110.733C134.289 110.624 134.752 110.507 134.744 109.931V108.097M137.369 110.841C136.592 111.825 135.505 111.728 134.703 110.624C134.124 111.221 133.483 111.668 132.581 111.487C131.881 111.346 131.385 110.934 131.252 110.322C131.112 109.677 131.313 109.048 131.974 108.73C132.702 108.379 133.512 108.193 134.289 107.943L134.551 107.888C134.732 107.19 134.716 106.545 134.619 105.916C134.562 105.541 134.285 105.304 133.862 105.312C133.452 105.32 133.27 105.566 133.202 105.932L133.189 106.347C132.92 106.799 132.727 107.158 132.444 107.295C132.255 107.387 131.716 107.198 131.664 107.033C131.563 106.702 131.575 106.235 131.744 105.945C132.11 105.327 132.798 105.167 133.472 105.086L134.531 105.074C135.658 105.142 136.355 105.796 136.427 106.928L136.475 109.758C136.483 110.656 136.48 110.656 137.366 110.841" fill="white"/>
</mask>
<g mask="url(#mask21_2623_16)">
<path d="M120.867 100.407H154.484V113.557H120.867V100.407Z" fill="#231F20"/>
</g>
</g>
<mask id="mask22_2623_16" style="mask-type:luminance" maskUnits="userSpaceOnUse" x="143" y="102" width="3" height="10">
<path d="M143.063 102.41H145.862V111.348H143.063V102.41Z" fill="white"/>
</mask>
<g mask="url(#mask22_2623_16)">
<mask id="mask23_2623_16" style="mask-type:luminance" maskUnits="userSpaceOnUse" x="143" y="102" width="3" height="10">
<path d="M143.314 111.297C143.427 110.926 143.632 110.556 143.64 110.181L143.66 104.107C143.665 103.635 143.676 103.183 143.089 102.97L145.492 102.422C145.492 102.954 145.492 103.386 145.492 103.812L145.505 110.358C145.509 110.676 145.714 110.987 145.827 111.297H143.314Z" fill="white"/>
</mask>
<g mask="url(#mask23_2623_16)">
<path d="M120.868 100.407H154.485V113.557H120.868V100.407Z" fill="#231F20"/>
</g>
</g>
<mask id="mask24_2623_16" style="mask-type:luminance" maskUnits="userSpaceOnUse" x="147" y="105" width="6" height="7">
<path d="M147.607 105.081H152.535V111.554H147.607V105.081Z" fill="white"/>
</mask>
<g mask="url(#mask24_2623_16)">
<mask id="mask25_2623_16" style="mask-type:luminance" maskUnits="userSpaceOnUse" x="147" y="105" width="6" height="7">
<path d="M151.851 106.944C151.581 106.497 151.4 106.198 151.227 105.896C150.961 105.437 150.563 105.256 150.039 105.308C149.531 105.356 149.096 105.53 148.971 106.065C148.851 106.594 149.177 106.928 149.628 107.118L151.17 107.682C151.895 107.964 152.411 108.436 152.475 109.262C152.551 110.254 152.1 110.987 151.15 111.305C150.107 111.656 149.06 111.62 148.05 111.177L147.743 110.919C147.679 110.39 147.712 110.008 147.712 109.625L147.811 109.6C148.025 109.866 148.178 110.149 148.352 110.418C148.822 111.164 149.354 111.402 150.2 111.221C150.623 111.132 150.977 110.934 151.066 110.455C151.159 109.939 150.949 109.555 150.482 109.354L149.157 108.875C148.082 108.488 147.53 107.734 147.651 106.827C147.784 105.86 148.618 105.123 149.721 105.087L151.408 105.235C151.863 105.304 152.08 105.578 151.944 106.07C151.884 106.292 151.891 106.533 151.851 106.941" fill="white"/>
</mask>
<g mask="url(#mask25_2623_16)">
<path d="M120.867 100.407H154.484V113.557H120.867V100.407Z" fill="#231F20"/>
</g>
</g>
<mask id="mask26_2623_16" style="mask-type:luminance" maskUnits="userSpaceOnUse" x="138" y="104" width="4" height="8">
<path d="M138.472 104.979H141.319V111.348H138.472V104.979Z" fill="white"/>
</mask>
<g mask="url(#mask26_2623_16)">
<mask id="mask27_2623_16" style="mask-type:luminance" maskUnits="userSpaceOnUse" x="138" y="105" width="4" height="7">
<path d="M141.304 111.321H138.521C139.255 111.039 139.227 110.535 139.222 110.024L139.227 106.84C139.235 106.384 139.154 106.013 138.627 105.799L140.986 105.03C140.999 105.312 141.015 105.514 141.015 105.719L141.018 110.322C141.023 110.645 141.195 110.963 141.304 111.326" fill="white"/>
</mask>
<g mask="url(#mask27_2623_16)">
<path d="M120.868 100.407H154.485V113.557H120.868V100.407Z" fill="#231F20"/>
</g>
</g>
<mask id="mask28_2623_16" style="mask-type:luminance" maskUnits="userSpaceOnUse" x="139" y="102" width="3" height="3">
<path d="M139.036 102.462H141.141V104.414H139.036V102.462Z" fill="white"/>
</mask>
<g mask="url(#mask28_2623_16)">
<mask id="mask29_2623_16" style="mask-type:luminance" maskUnits="userSpaceOnUse" x="139" y="102" width="3" height="3">
<path d="M141.099 103.394C141.107 103.913 140.673 104.349 140.124 104.369C139.549 104.389 139.07 103.966 139.058 103.426C139.045 102.894 139.465 102.487 140.036 102.466C140.648 102.447 141.091 102.833 141.104 103.394" fill="white"/>
</mask>
<g mask="url(#mask29_2623_16)">
<path d="M120.868 100.407H154.485V113.557H120.868V100.407Z" fill="#231F20"/>
</g>
</g>
<mask id="mask30_2623_16" style="mask-type:luminance" maskUnits="userSpaceOnUse" x="19" y="49" width="168" height="50">
<path d="M19.1914 49.7665H186.681V98.3689H19.1914V49.7665Z" fill="white"/>
</mask>
<g mask="url(#mask30_2623_16)">
<mask id="mask31_2623_16" style="mask-type:luminance" maskUnits="userSpaceOnUse" x="19" y="49" width="168" height="50">
<path d="M20.6951 51.166C20.6951 66.2883 20.6508 81.8016 20.6508 96.9649L21.1461 97.0649C30.3886 97.0695 39.405 97.0695 48.4181 97.0615L68.3797 97.0444C104.888 97.041 141.398 97.041 177.907 97.0365L184.282 97.057C184.572 97.057 184.866 97.0206 185.196 96.9967L185.237 96.509C185.232 81.7084 185.224 67.1182 185.22 52.5279L185.232 52.097C185.212 51.4797 185.011 51.2546 184.617 51.2012L184.359 51.1932C162.725 51.1932 141.217 51.1932 119.708 51.1978H64.7188C64.3973 51.1978 64.0748 51.1739 63.7567 51.1375L63.3898 51C63.3626 50.5361 63.3092 50.1019 63.6079 50.0086L64.5904 49.9518C66.242 49.9279 67.8969 49.9404 69.5473 49.9404L178.499 49.9438C180.711 49.9438 182.921 49.9404 185.131 49.9404L185.652 49.9279C186.231 50.0086 186.452 50.1985 186.481 50.5487L186.497 50.9795C186.497 66.4292 186.497 81.6641 186.493 96.9001L186.497 97.3719C186.46 98.2256 186.372 98.3223 185.772 98.3427L184.741 98.3348C157.503 98.3348 130.267 98.3302 103.028 98.3302H22.7976C22.0048 98.3302 21.2074 98.3029 20.418 98.3393C19.6683 98.3746 19.3264 98.1176 19.3423 97.2263L19.3628 92.9052C19.3582 78.9595 19.3548 65.0139 19.3503 51.0682C19.3503 50.2178 19.6411 49.9279 20.5145 49.9245L27.8556 49.9075C28.4678 49.9075 28.6325 50.0371 28.6848 50.5532C28.7382 51.0773 28.3747 51.0682 27.9044 51.0284" fill="white"/>
</mask>
<g mask="url(#mask31_2623_16)">
<path d="M17.3281 47.453H188.548V100.373H17.3281V47.453Z" fill="#231F20"/>
</g>
</g>
<mask id="mask32_2623_16" style="mask-type:luminance" maskUnits="userSpaceOnUse" x="28" y="49" width="34" height="41">
<path d="M28.2061 49.3141H61.0642V89.8301H28.2061V49.3141Z" fill="white"/>
</mask>
<g mask="url(#mask32_2623_16)">
<mask id="mask33_2623_16" style="mask-type:luminance" maskUnits="userSpaceOnUse" x="28" y="49" width="33" height="41">
<path d="M53.086 51.4673C48.471 50.3759 42.5225 50.642 38.8662 53.8661C33.8127 63.1484 34.4 74.41 38.154 84.0265C38.8582 85.7148 40.2474 86.8959 42.0432 87.2029C47.1659 89.1367 52.0103 88.5694 56.8991 86.3446C57.2944 86.1581 57.6771 85.8205 58.1031 85.8239C58.4825 85.7682 58.913 86.0297 58.7801 86.4446C58.6631 86.9084 57.9827 87.3802 57.0524 87.8111C55.1078 88.6774 52.4374 89.4152 50.4962 89.6448C35.9266 91.5274 23.5196 75.1069 30.0269 61.6853C32.2623 56.0545 37.5009 51.9437 43.2517 50.2827C49.0787 48.6025 55.494 49.4039 59.9193 53.8342C60.4112 54.3822 60.7292 55.1155 60.8496 55.8123C61.4664 59.2911 57.8055 63.1404 54.2855 62.0525C49.1911 60.9395 48.5153 54.3413 52.9168 51.8061L53.1826 51.5765L53.086 51.4673Z" fill="white"/>
</mask>
<g mask="url(#mask33_2623_16)">
<path d="M17.3291 47.4531H188.549V100.373H17.3291V47.4531Z" fill="#231F20"/>
</g>
</g>
<mask id="mask34_2623_16" style="mask-type:luminance" maskUnits="userSpaceOnUse" x="99" y="60" width="27" height="28">
<path d="M99.7373 60.5347H125.908V87.7632H99.7373V60.5347Z" fill="white"/>
</mask>
<g mask="url(#mask34_2623_16)">
<mask id="mask35_2623_16" style="mask-type:luminance" maskUnits="userSpaceOnUse" x="99" y="60" width="27" height="28">
<path d="M114.469 73.5186L112.718 73.8619C111.066 74.1393 109.588 74.8089 108.424 76.0094C106.842 77.6419 106.624 79.653 107.108 81.7778C107.59 83.9014 109.693 85.0382 111.699 84.1913C112.552 83.8332 113.294 83.2125 114.094 82.7282C114.42 82.5315 114.513 82.2689 114.509 81.8983L114.501 74.1029C114.501 73.9301 114.481 73.7562 114.465 73.5186M125.765 84.7722C124.106 87.0732 121.979 87.7348 119.483 87.5529C117.787 87.4279 116.346 86.8322 115.411 85.3361L114.638 83.74C113.74 84.5221 112.841 85.3156 111.932 86.0944C110.474 87.3358 108.731 87.7144 106.878 87.6825C105.195 87.6541 103.652 87.1698 102.239 86.2024C99.7496 84.4982 98.5705 79.6575 101.88 76.7711C103.746 75.1431 105.935 74.2439 108.28 73.68L114.215 72.4875C114.287 72.4704 114.36 72.4511 114.381 72.4465L114.36 65.9336C114.34 65.2242 114.143 64.4943 113.897 63.8168C113.289 62.124 111.807 61.3828 110.076 61.8466C108.726 62.2047 108.307 63.3052 108.078 64.5023L107.571 67.6377C107.256 69.0042 106.407 69.9716 105.01 70.2786C103.769 70.548 102.621 70.2706 101.743 69.2747C100.93 68.3516 100.979 67.2307 101.184 66.1427C101.55 64.2203 102.879 63.0357 104.526 62.1968C107.361 60.7541 110.422 60.504 113.534 60.7098C115.093 60.8143 116.588 61.2259 117.956 62.008C120.014 63.1847 121.117 65.0309 121.505 67.3035C121.706 68.4971 121.778 69.7261 121.794 70.9391L121.806 81.2127C121.806 81.3708 121.806 81.5277 121.806 81.6845C121.79 83.5183 122.209 84.6551 124.629 84.5426C124.963 84.5266 125.302 84.679 125.761 84.7756" fill="white"/>
</mask>
<g mask="url(#mask35_2623_16)">
<path d="M17.3281 47.453H188.548V100.373H17.3281V47.453Z" fill="#231F20"/>
</g>
</g>
<mask id="mask36_2623_16" style="mask-type:luminance" maskUnits="userSpaceOnUse" x="150" y="60" width="25" height="28">
<path d="M150.132 60.5347H174.297V87.7632H150.132V60.5347Z" fill="white"/>
</mask>
<g mask="url(#mask36_2623_16)">
<mask id="mask37_2623_16" style="mask-type:luminance" maskUnits="userSpaceOnUse" x="150" y="60" width="25" height="28">
<path d="M158.303 72.4875H167.364C167.421 71.6042 167.489 70.7618 167.521 69.9194C167.59 68.0652 167.549 66.2235 166.994 64.4295C166.559 63.0358 165.709 62.0444 164.231 61.7375C162.178 61.3146 160.43 62.2331 159.575 64.1635C158.408 66.8044 158.408 69.6215 158.303 72.4829M173.574 80.9956L173.944 81.3299C172.208 84.6551 169.599 86.8231 165.91 87.4609C163.088 87.9486 160.301 87.7587 157.651 86.6014C153.81 84.9257 151.578 81.9142 150.728 77.8761C150.084 74.8248 150.136 71.761 151.309 68.8268C153.04 64.4784 156.302 61.8864 160.844 60.903C162.994 60.4358 165.157 60.5006 167.252 61.1656C171.231 62.431 173.501 65.2356 174.158 69.3111C174.351 70.5162 174.202 71.7735 174.206 73.007C174.206 73.5027 173.928 73.5993 173.477 73.5959L159.08 73.5868C158.847 73.5868 158.618 73.5868 158.336 73.5868C158.316 75.3773 158.469 77.086 158.911 78.7629C159.205 79.8747 159.632 80.9274 160.349 81.8335C161.384 83.1397 162.754 83.9094 164.38 84.1674C166.321 84.4732 168.294 84.5267 170.103 83.6593C171.126 83.1681 172.007 82.3701 172.938 81.6891L173.57 80.9956" fill="white"/>
</mask>
<g mask="url(#mask37_2623_16)">
<path d="M17.3281 47.453H188.548V100.373H17.3281V47.453Z" fill="#231F20"/>
</g>
</g>
<mask id="mask38_2623_16" style="mask-type:luminance" maskUnits="userSpaceOnUse" x="73" y="60" width="24" height="28">
<path d="M73.3008 60.5347H96.8301V87.7632H73.3008V60.5347Z" fill="white"/>
</mask>
<g mask="url(#mask38_2623_16)">
<mask id="mask39_2623_16" style="mask-type:luminance" maskUnits="userSpaceOnUse" x="73" y="60" width="24" height="28">
<path d="M96.4045 80.7819C96.9407 81.0274 96.8884 81.3344 96.6783 81.7573C95.0926 84.9211 92.5233 86.7992 89.0873 87.4199C85.1129 88.1418 81.368 87.537 78.1058 84.9893C75.8432 83.2204 74.4256 80.891 73.8293 78.0648C73.1807 75.0021 73.1853 71.9554 74.3041 69.0042C75.9761 64.6034 79.2701 62.0603 83.784 61.0121C86.2204 60.4483 88.6693 60.4358 91.0694 61.1451C93.9 61.9796 96.0263 63.6439 96.6749 66.6793C97.2178 69.2224 95.6515 70.8061 93.4854 70.7174C91.6566 70.6412 90.2595 69.3145 90.0346 67.2591L89.9937 64.9695C89.9937 64.4579 90.0255 63.9463 90.0142 63.4348C89.9812 62.1854 89.394 61.6124 88.1457 61.5885C85.3469 61.5396 83.2002 63.2244 82.2301 66.2519C81.4157 68.795 81.2794 71.4234 81.3362 74.0665C81.376 75.9412 81.6054 77.7908 82.2824 79.5563C83.5341 82.8293 86.0955 84.4175 89.611 84.3527C92.2768 84.3049 94.3305 83.2329 95.9865 81.2207L96.2523 80.9353" fill="white"/>
</mask>
<g mask="url(#mask39_2623_16)">
<path d="M17.3291 47.453H188.549V100.373H17.3291V47.453Z" fill="#231F20"/>
</g>
</g>
<mask id="mask40_2623_16" style="mask-type:luminance" maskUnits="userSpaceOnUse" x="126" y="60" width="23" height="27">
<path d="M126.794 60.5347H148.48V86.9356H126.794V60.5347Z" fill="white"/>
</mask>
<g mask="url(#mask40_2623_16)">
<mask id="mask41_2623_16" style="mask-type:luminance" maskUnits="userSpaceOnUse" x="126" y="60" width="23" height="27">
<path d="M136.946 66.0825C137.911 64.3534 139.096 63.0108 140.61 61.9592C142.156 60.8826 143.836 60.3426 145.723 60.778C147.307 61.1452 148.386 62.4867 148.462 64.1237C148.551 66.1109 147.935 67.3558 146.413 67.9924C144.858 68.6416 143.44 68.2266 142.197 67.1864L140.855 65.7801C140.118 64.9502 139.365 64.9252 138.596 65.7119C137.488 66.8442 136.928 68.1379 136.953 69.7784L136.981 82.8942C136.981 83.3614 137.017 83.8412 137.126 84.2925C137.308 85.0587 137.83 85.5499 138.568 85.7954L140.138 86.2877C140.32 86.3559 140.448 86.5537 140.602 86.6901L140.533 86.7913L126.874 86.8402C126.749 86.5298 126.825 86.3797 127.184 86.2752C129.004 85.7352 129.447 85.119 129.447 83.2159L129.442 67.2671C129.442 66.8567 129.398 66.4452 129.342 66.0382C129.23 65.2481 128.722 64.7968 127.997 64.5592L127.489 64.4625C127.091 64.2931 126.958 64.1317 126.812 64.0112L127.062 63.6724C128.706 63.0881 130.187 62.5879 131.674 62.0797L135.351 60.8383C135.995 60.6211 136.357 60.8064 136.441 61.484C136.623 62.963 136.768 64.4466 136.941 66.078" fill="white"/>
</mask>
<g mask="url(#mask41_2623_16)">
<path d="M17.3291 47.453H188.549V100.373H17.3291V47.453Z" fill="#231F20"/>
</g>
</g>
<mask id="mask42_2623_16" style="mask-type:luminance" maskUnits="userSpaceOnUse" x="160" y="107" width="27" height="2">
<path d="M160.384 107.697H186.315V108.931H160.384V107.697Z" fill="white"/>
</mask>
<g mask="url(#mask42_2623_16)">
<mask id="mask43_2623_16" style="mask-type:luminance" maskUnits="userSpaceOnUse" x="160" y="107" width="27" height="2">
<path d="M160.967 108.906L182.672 108.926C183.691 108.926 184.71 108.93 185.729 108.93C186.506 108.93 186.506 107.721 185.729 107.721L164.024 107.701C163.005 107.701 161.986 107.697 160.967 107.697C160.189 107.697 160.189 108.906 160.967 108.906Z" fill="white"/>
</mask>
<g mask="url(#mask43_2623_16)">
<path d="M160.384 107.697H186.311V108.931H160.384V107.697Z" fill="#231F20"/>
</g>
</g>
</svg>
