<svg width="168" height="66" viewBox="0 0 168 66" fill="none" xmlns="http://www.w3.org/2000/svg">
<mask id="mask0_2648_250" style="mask-type:luminance" maskUnits="userSpaceOnUse" x="0" y="58" width="27" height="2">
<path d="M0.425781 58.353H26.3529V59.5865H0.425781V58.353Z" fill="white"/>
</mask>
<g mask="url(#mask0_2648_250)">
<mask id="mask1_2648_250" style="mask-type:luminance" maskUnits="userSpaceOnUse" x="0" y="58" width="27" height="2">
<path d="M1.00945 59.5615L9.37733 59.5695C13.8231 59.574 18.2688 59.5774 22.7112 59.582L25.7678 59.5854C26.5447 59.5854 26.5447 58.3769 25.7678 58.3769L17.3988 58.3689C12.953 58.3644 8.50727 58.361 4.06605 58.3564L1.00945 58.353C0.232526 58.353 0.232526 59.5615 1.00945 59.5615Z" fill="white"/>
</mask>
<g mask="url(#mask1_2648_250)">
<path d="M0.425781 58.353H26.3529V59.5865H0.425781V58.353Z" fill="white"/>
</g>
</g>
<mask id="mask2_2648_250" style="mask-type:luminance" maskUnits="userSpaceOnUse" x="43" y="55" width="7" height="8">
<path d="M43.5283 55.7485H49.9187V62.2274H43.5283V55.7485Z" fill="white"/>
</mask>
<g mask="url(#mask2_2648_250)">
<mask id="mask3_2648_250" style="mask-type:luminance" maskUnits="userSpaceOnUse" x="43" y="55" width="7" height="8">
<path d="M47.984 58.9249L47.7829 56.9536C47.6909 56.4216 47.4172 55.9987 46.772 55.9953C46.1598 55.9907 45.8259 56.2249 45.6816 56.9218C45.4033 58.2644 45.4067 59.6184 45.6691 60.9644C45.8145 61.7102 46.1484 61.9717 46.7641 61.9557C47.3525 61.9398 47.6864 61.6295 47.8034 60.8883L47.9885 58.9295M49.8695 59.0375C49.8173 61.0406 48.544 62.2991 46.6471 62.2218C44.6945 62.1456 43.5064 60.8314 43.5666 58.8203C43.6268 56.9377 44.9444 55.7122 46.8652 55.7565C48.6973 55.7975 49.9172 57.1355 49.8695 59.0375Z" fill="white"/>
</mask>
<g mask="url(#mask3_2648_250)">
<path d="M33.8936 51.6503H66.729V64.2442H33.8936V51.6503Z" fill="white"/>
</g>
</g>
<mask id="mask4_2648_250" style="mask-type:luminance" maskUnits="userSpaceOnUse" x="35" y="53" width="8" height="10">
<path d="M35.8604 53.618H42.0054V62.0307H35.8604V53.618Z" fill="white"/>
</mask>
<g mask="url(#mask4_2648_250)">
<mask id="mask5_2648_250" style="mask-type:luminance" maskUnits="userSpaceOnUse" x="35" y="53" width="8" height="9">
<path d="M35.9082 53.6647H38.9489C38.2197 54.0239 38.3844 54.6969 38.3844 55.2972L38.381 61.0814C38.381 61.2952 38.381 61.5044 38.381 61.7704L40.5471 61.742C40.8208 61.7101 41.1229 61.4202 41.2967 61.1701C41.5625 60.787 41.7318 60.3391 42.0055 59.7877V61.9886H35.9082C36.5159 61.7181 36.4875 61.202 36.4841 60.662V54.8174C36.4875 54.3297 36.4398 53.9193 35.9082 53.6647Z" fill="white"/>
</mask>
<g mask="url(#mask5_2648_250)">
<path d="M33.8945 51.6501H66.73V64.2441H33.8945V51.6501Z" fill="white"/>
</g>
</g>
<mask id="mask6_2648_250" style="mask-type:luminance" maskUnits="userSpaceOnUse" x="58" y="55" width="7" height="8">
<path d="M58.9639 55.6837H64.7636V62.2763H58.9639V55.6837Z" fill="white"/>
</mask>
<g mask="url(#mask6_2648_250)">
<mask id="mask7_2648_250" style="mask-type:luminance" maskUnits="userSpaceOnUse" x="58" y="55" width="7" height="8">
<path d="M63.1476 58.5703L63.0181 56.757C62.9579 56.35 62.7046 56.0431 62.2378 55.9987C61.746 55.951 61.3473 56.1363 61.2144 56.6035L60.8236 58.5748L63.1476 58.5703ZM64.6742 58.8522H60.9088C60.944 59.7799 60.9611 60.6939 61.8346 61.1736C62.8296 61.7227 63.7678 61.4317 64.6129 60.6461C64.4118 61.3555 63.711 61.9444 62.9136 62.1297C61.1178 62.5481 59.531 61.6375 59.1199 59.9527C58.6496 58.0223 59.5833 56.2727 61.3757 55.8373C62.3502 55.5997 63.301 55.6963 64.054 56.4705C64.6901 57.1276 64.8423 57.9257 64.6742 58.8522Z" fill="white"/>
</mask>
<g mask="url(#mask7_2648_250)">
<path d="M33.8945 51.6501H66.73V64.2441H33.8945V51.6501Z" fill="white"/>
</g>
</g>
<mask id="mask8_2648_250" style="mask-type:luminance" maskUnits="userSpaceOnUse" x="51" y="55" width="7" height="8">
<path d="M51.3447 55.8804H57.6363V62.0796H51.3447V55.8804Z" fill="white"/>
</mask>
<g mask="url(#mask8_2648_250)">
<mask id="mask9_2648_250" style="mask-type:luminance" maskUnits="userSpaceOnUse" x="51" y="55" width="7" height="8">
<path d="M51.3594 55.9259H54.3115C53.7072 56.1999 53.8242 56.6069 54.0173 57.0866C54.4205 58.0825 54.7829 59.0977 55.2224 60.2834L55.4269 59.7389C55.8017 58.6907 56.0914 57.8369 56.4174 56.9945C56.5991 56.5227 56.6309 56.1476 56.0312 55.9509H57.6339C56.8524 56.0748 56.7683 56.7365 56.5707 57.2969L55.0929 61.5726C55.0043 61.8352 54.9396 62.0649 54.5534 62.0649L54.09 61.8591C53.3778 60.1299 52.786 58.6543 52.1488 57.2003L51.3594 55.9225" fill="white"/>
</mask>
<g mask="url(#mask9_2648_250)">
<path d="M33.8945 51.6503H66.73V64.2442H33.8945V51.6503Z" fill="white"/>
</g>
</g>
<mask id="mask10_2648_250" style="mask-type:luminance" maskUnits="userSpaceOnUse" x="85" y="55" width="7" height="8">
<path d="M85.6143 55.7485H91.9478V62.2411H85.6143V55.7485Z" fill="white"/>
</mask>
<g mask="url(#mask10_2648_250)">
<mask id="mask11_2648_250" style="mask-type:luminance" maskUnits="userSpaceOnUse" x="85" y="55" width="7" height="8">
<path d="M89.5085 56.2407C90.1048 56.1157 90.8215 55.9668 91.6075 55.7974V57.281C91.6075 58.5178 91.5826 59.7593 91.6155 60.9973C91.6234 61.327 91.8006 61.6499 91.9176 62.0205C91.3656 62.0614 90.6807 62.1137 89.964 62.166L89.8515 61.7147C89.2631 61.7624 88.7202 62.0568 88.1477 62.1614C86.787 62.4081 85.9896 61.7147 85.9737 60.3277L86.01 57.3776C85.9975 57.007 85.7999 56.6398 85.667 56.2123C86.2395 56.0998 86.9721 55.9543 87.8251 55.786V56.2612C87.8138 57.8414 87.8013 59.2159 87.7854 60.5937C87.7808 61.0087 87.8217 61.493 88.3011 61.5134C88.7804 61.5328 89.2631 61.327 89.7345 61.1781L89.8152 60.8961C89.8311 59.566 89.8549 58.3848 89.8276 57.2048C89.8186 56.9104 89.6414 56.6159 89.513 56.2407" fill="white"/>
</mask>
<g mask="url(#mask11_2648_250)">
<path d="M67.9238 53.7021H100.741V67.1124H67.9238V53.7021Z" fill="white"/>
</g>
</g>
<mask id="mask12_2648_250" style="mask-type:luminance" maskUnits="userSpaceOnUse" x="77" y="55" width="7" height="8">
<path d="M77.6592 55.7451H83.9927V62.241H77.6592V55.7451Z" fill="white"/>
</mask>
<g mask="url(#mask12_2648_250)">
<mask id="mask13_2648_250" style="mask-type:luminance" maskUnits="userSpaceOnUse" x="77" y="55" width="7" height="8">
<path d="M79.5536 58.9578L79.8114 61.0655C79.9364 61.7147 80.2953 61.9568 80.8746 61.9523C81.4743 61.9477 81.8537 61.5817 81.873 61.0655L81.8616 56.8456C81.8378 56.3295 81.4425 55.9827 80.8382 55.9873C80.243 55.9907 79.908 56.3181 79.8114 56.8501L79.5536 58.9578ZM80.8507 55.7451C82.7431 55.7451 83.988 57.0229 83.988 58.9578C83.988 60.9485 82.7476 62.2308 80.8348 62.2183C78.9175 62.2024 77.6737 60.9121 77.6817 58.9419C77.6896 57.0354 78.9663 55.7451 80.8507 55.7451Z" fill="white"/>
</mask>
<g mask="url(#mask13_2648_250)">
<path d="M67.9238 53.7021H100.741V67.1124H67.9238V53.7021Z" fill="white"/>
</g>
</g>
<mask id="mask14_2648_250" style="mask-type:luminance" maskUnits="userSpaceOnUse" x="69" y="55" width="8" height="11">
<path d="M69.9121 55.902H76.0367V65.1218H69.9121V55.902Z" fill="white"/>
</mask>
<g mask="url(#mask14_2648_250)">
<mask id="mask15_2648_250" style="mask-type:luminance" maskUnits="userSpaceOnUse" x="69" y="55" width="8" height="11">
<path d="M69.9375 55.943H72.8203C72.241 56.2374 72.3694 56.6444 72.5511 57.0912C72.9657 58.1235 73.3519 59.1637 73.8028 60.3358C74.2629 59.0705 74.6695 57.9541 75.0682 56.8331C75.209 56.4421 75.1568 56.1203 74.6729 55.9589H76.0303C75.8008 56.3341 75.4782 56.7286 75.301 57.1844L73.2758 62.6492C73.0463 63.2506 72.7408 63.8304 72.3898 64.375C71.9911 64.9991 71.3062 65.2617 70.711 64.9957C70.4202 64.8661 70.1431 64.5364 70.0386 64.234L70.2271 63.5883C70.7474 63.4723 71.2256 63.4803 71.4834 63.6735C72.2978 64.2738 72.2728 64.3022 72.7158 63.3507C72.9294 62.8914 72.9294 62.4924 72.7204 62.0206L70.6099 57.031C70.4407 56.6399 70.1624 56.3011 69.9375 55.943Z" fill="white"/>
</mask>
<g mask="url(#mask15_2648_250)">
<path d="M67.9238 53.7021H100.741V67.1124H67.9238V53.7021Z" fill="white"/>
</g>
</g>
<mask id="mask16_2648_250" style="mask-type:luminance" maskUnits="userSpaceOnUse" x="93" y="55" width="6" height="8">
<path d="M93.4131 55.6927H98.7516V62.0307H93.4131V55.6927Z" fill="white"/>
</mask>
<g mask="url(#mask16_2648_250)">
<mask id="mask17_2648_250" style="mask-type:luminance" maskUnits="userSpaceOnUse" x="93" y="55" width="6" height="8">
<path d="M96.7046 62.0091H93.4788C94.2648 61.726 94.2001 61.186 94.1955 60.6619L94.2001 57.6561C94.208 57.1559 94.1955 56.6921 93.4141 56.5306L95.7869 55.7246C95.8584 56.1407 95.9232 56.4988 95.98 56.8251L97.2044 55.8781C97.9132 55.495 98.6254 55.8258 98.714 56.5033C98.7662 56.8978 98.7106 57.3378 98.2949 57.4344C97.9609 57.5106 97.5622 57.3776 97.2124 57.273L96.4548 56.8774C96.2935 57.2207 96.0243 57.5549 95.9959 57.9051L95.9675 60.679C95.9516 61.2747 95.9879 61.8033 96.7046 62.0091Z" fill="white"/>
</mask>
<g mask="url(#mask17_2648_250)">
<path d="M67.9229 53.7021H100.74V67.1124H67.9229V53.7021Z" fill="white"/>
</g>
</g>
<mask id="mask18_2648_250" style="mask-type:luminance" maskUnits="userSpaceOnUse" x="103" y="55" width="8" height="8">
<path d="M103.678 55.7156H110.452V62.0342H103.678V55.7156Z" fill="white"/>
</mask>
<g mask="url(#mask18_2648_250)">
<mask id="mask19_2648_250" style="mask-type:luminance" maskUnits="userSpaceOnUse" x="103" y="55" width="8" height="8">
<path d="M107.629 61.9955C108.051 61.7408 108.14 61.3941 108.135 60.9598L108.127 57.356C108.124 56.6466 107.898 56.3681 107.334 56.3567C106.654 56.3442 106.107 56.7956 106.107 57.3799L106.118 60.9837C106.126 61.3145 106.295 61.6362 106.408 62.0273H103.775C104.351 61.7249 104.282 61.2008 104.282 60.6972L104.286 57.5095C104.294 57.0582 104.246 56.675 103.689 56.4818L105.873 55.7235C105.945 56.0054 106.009 56.2556 106.09 56.5534L106.412 56.3124C107.116 56.0702 107.648 55.8088 108.192 55.7724C109.276 55.6996 109.88 56.3283 109.899 57.4163L109.907 60.7825C109.907 61.5442 109.907 61.5442 110.443 61.9989L107.629 61.9955Z" fill="white"/>
</mask>
<g mask="url(#mask19_2648_250)">
<path d="M101.677 51.0931H135.294V64.243H101.677V51.0931Z" fill="white"/>
</g>
</g>
<mask id="mask20_2648_250" style="mask-type:luminance" maskUnits="userSpaceOnUse" x="111" y="55" width="8" height="8">
<path d="M111.992 55.7485H118.202V62.2399H111.992V55.7485Z" fill="white"/>
</mask>
<g mask="url(#mask20_2648_250)">
<mask id="mask21_2648_250" style="mask-type:luminance" maskUnits="userSpaceOnUse" x="112" y="55" width="7" height="8">
<path d="M115.548 58.7828L114.626 59.0488C113.838 59.383 113.483 60.2095 113.801 60.9314C113.974 61.3259 114.292 61.5271 114.699 61.4191C115.097 61.31 115.561 61.1929 115.553 60.6165V58.7828M118.178 61.5271C117.401 62.5105 116.314 62.4138 115.512 61.31C114.933 61.9068 114.292 62.3536 113.39 62.1728C112.689 62.0319 112.194 61.6203 112.061 61.0076C111.92 60.363 112.121 59.7343 112.782 59.416C113.51 59.0647 114.32 58.8794 115.097 58.6293L115.36 58.5736C115.54 57.8756 115.524 57.231 115.428 56.6023C115.371 56.2271 115.094 55.9895 114.67 55.9975C114.26 56.0054 114.078 56.2521 114.01 56.6182L113.998 57.0332C113.729 57.4845 113.535 57.8437 113.253 57.9813C113.064 58.0734 112.525 57.8835 112.472 57.7187C112.371 57.3878 112.384 56.9206 112.553 56.6307C112.919 56.0134 113.607 55.8531 114.281 55.7724L115.339 55.7599C116.467 55.8281 117.163 56.4818 117.236 57.6141L117.284 60.4437C117.292 61.3418 117.288 61.3418 118.174 61.5271" fill="white"/>
</mask>
<g mask="url(#mask21_2648_250)">
<path d="M101.676 51.0931H135.293V64.243H101.676V51.0931Z" fill="white"/>
</g>
</g>
<mask id="mask22_2648_250" style="mask-type:luminance" maskUnits="userSpaceOnUse" x="123" y="53" width="4" height="10">
<path d="M123.872 53.0963H126.671V62.0342H123.872V53.0963Z" fill="white"/>
</mask>
<g mask="url(#mask22_2648_250)">
<mask id="mask23_2648_250" style="mask-type:luminance" maskUnits="userSpaceOnUse" x="123" y="53" width="4" height="9">
<path d="M124.122 61.983C124.236 61.6124 124.44 61.2418 124.448 60.8666L124.469 54.7925C124.473 54.3207 124.485 53.8694 123.897 53.6556L126.301 53.1077C126.301 53.6397 126.301 54.0717 126.301 54.498L126.313 61.044C126.318 61.3623 126.522 61.6727 126.636 61.983H124.122Z" fill="white"/>
</mask>
<g mask="url(#mask23_2648_250)">
<path d="M101.677 51.0931H135.294V64.243H101.677V51.0931Z" fill="white"/>
</g>
</g>
<mask id="mask24_2648_250" style="mask-type:luminance" maskUnits="userSpaceOnUse" x="128" y="55" width="6" height="8">
<path d="M128.416 55.7667H133.343V62.2399H128.416V55.7667Z" fill="white"/>
</mask>
<g mask="url(#mask24_2648_250)">
<mask id="mask25_2648_250" style="mask-type:luminance" maskUnits="userSpaceOnUse" x="128" y="55" width="6" height="8">
<path d="M132.659 57.6301C132.39 57.1833 132.208 56.8843 132.036 56.5819C131.77 56.1226 131.371 55.9419 130.847 55.9941C130.34 56.0419 129.905 56.2158 129.78 56.7513C129.659 57.2799 129.985 57.6141 130.436 57.804L131.979 58.3679C132.703 58.6498 133.219 59.1216 133.284 59.9481C133.36 60.9394 132.909 61.6727 131.958 61.991C130.916 62.3423 129.868 62.3059 128.859 61.8625L128.552 61.6045C128.487 61.0758 128.52 60.6939 128.52 60.3107L128.62 60.2857C128.834 60.5518 128.987 60.8348 129.161 61.1043C129.631 61.85 130.163 62.0876 131.009 61.9069C131.431 61.8182 131.786 61.6204 131.874 61.1406C131.967 60.6245 131.757 60.2414 131.29 60.0402L129.966 59.5604C128.89 59.1739 128.338 58.4202 128.46 57.513C128.593 56.5455 129.427 55.8088 130.529 55.7725L132.216 55.9214C132.672 55.9896 132.889 56.2636 132.752 56.7558C132.692 56.9775 132.7 57.2185 132.659 57.6267" fill="white"/>
</mask>
<g mask="url(#mask25_2648_250)">
<path d="M101.676 51.0931H135.293V64.243H101.676V51.0931Z" fill="white"/>
</g>
</g>
<mask id="mask26_2648_250" style="mask-type:luminance" maskUnits="userSpaceOnUse" x="119" y="55" width="4" height="8">
<path d="M119.28 55.6644H122.128V62.0342H119.28V55.6644Z" fill="white"/>
</mask>
<g mask="url(#mask26_2648_250)">
<mask id="mask27_2648_250" style="mask-type:luminance" maskUnits="userSpaceOnUse" x="119" y="55" width="4" height="8">
<path d="M122.113 62.0069H119.33C120.064 61.7249 120.035 61.2213 120.031 60.7097L120.035 57.5254C120.043 57.0696 119.963 56.6989 119.436 56.4852L121.795 55.7156C121.807 55.9975 121.823 56.1999 121.823 56.4045L121.827 61.0076C121.831 61.3305 122.004 61.6488 122.113 62.0114" fill="white"/>
</mask>
<g mask="url(#mask27_2648_250)">
<path d="M101.677 51.0931H135.294V64.243H101.677V51.0931Z" fill="white"/>
</g>
</g>
<mask id="mask28_2648_250" style="mask-type:luminance" maskUnits="userSpaceOnUse" x="119" y="53" width="3" height="3">
<path d="M119.845 53.1475H121.949V55.0994H119.845V53.1475Z" fill="white"/>
</mask>
<g mask="url(#mask28_2648_250)">
<mask id="mask29_2648_250" style="mask-type:luminance" maskUnits="userSpaceOnUse" x="119" y="53" width="3" height="3">
<path d="M121.908 54.0797C121.916 54.5993 121.482 55.0347 120.933 55.0551C120.357 55.0745 119.879 54.6516 119.866 54.1116C119.854 53.5795 120.273 53.1725 120.844 53.1521C121.457 53.1327 121.9 53.5193 121.912 54.0797" fill="white"/>
</mask>
<g mask="url(#mask29_2648_250)">
<path d="M101.677 51.0933H135.294V64.2431H101.677V51.0933Z" fill="white"/>
</g>
</g>
<mask id="mask30_2648_250" style="mask-type:luminance" maskUnits="userSpaceOnUse" x="0" y="0" width="168" height="50">
<path d="M0 0.452393H167.489V49.0548H0V0.452393Z" fill="white"/>
</mask>
<g mask="url(#mask30_2648_250)">
<mask id="mask31_2648_250" style="mask-type:luminance" maskUnits="userSpaceOnUse" x="0" y="0" width="168" height="50">
<path d="M1.50373 1.85187C1.50373 16.9742 1.45943 32.4876 1.45943 47.6508L1.95467 47.7508C11.1972 47.7554 20.2136 47.7554 29.2267 47.7474L49.1883 47.7304C85.6971 47.727 122.207 47.727 158.716 47.7224L165.09 47.7429C165.381 47.7429 165.674 47.7065 166.005 47.6826L166.046 47.1949C166.041 32.3943 166.033 17.8041 166.029 3.21381L166.041 2.78295C166.021 2.16564 165.82 1.94054 165.425 1.88711L165.168 1.87915C143.534 1.87915 122.025 1.87915 100.517 1.8837H45.5274C45.2059 1.8837 44.8834 1.85983 44.5653 1.82345L44.1984 1.68589C44.1712 1.22206 44.1178 0.787784 44.4165 0.694563L45.399 0.637721C47.0506 0.613847 48.7055 0.626352 50.3559 0.626352L159.308 0.629763C161.519 0.629763 163.73 0.626352 165.94 0.626352L166.46 0.613847C167.039 0.694563 167.261 0.884416 167.289 1.23456L167.305 1.66543C167.305 17.1151 167.305 32.35 167.302 47.586L167.305 48.0578C167.269 48.9115 167.18 49.0082 166.581 49.0286L165.549 49.0207C138.311 49.0207 111.076 49.0161 83.8365 49.0161H3.60621C2.81338 49.0161 2.016 48.9888 1.22658 49.0252C0.476912 49.0605 0.135018 48.8035 0.15092 47.9123L0.171366 43.5911C0.166822 29.6454 0.163415 15.6998 0.158871 1.7541C0.158871 0.903742 0.449651 0.613847 1.32313 0.610436L8.66419 0.593384C9.27642 0.593384 9.44112 0.722984 9.49337 1.23911C9.54675 1.7632 9.18328 1.7541 8.71303 1.71431" fill="white"/>
</mask>
<g mask="url(#mask31_2648_250)">
<path d="M-1.86328 -1.86108H169.356V51.059H-1.86328V-1.86108Z" fill="white"/>
</g>
</g>
<mask id="mask32_2648_250" style="mask-type:luminance" maskUnits="userSpaceOnUse" x="9" y="0" width="33" height="41">
<path d="M9.01465 0H41.8728V40.516H9.01465V0Z" fill="white"/>
</mask>
<g mask="url(#mask32_2648_250)">
<mask id="mask33_2648_250" style="mask-type:luminance" maskUnits="userSpaceOnUse" x="9" y="0" width="33" height="41">
<path d="M33.8946 2.15323C29.2796 1.06186 23.3311 1.32788 19.6748 4.55197C14.6213 13.8343 15.2086 25.0959 18.9626 34.7125C19.6668 36.4007 21.056 37.5818 22.8518 37.8888C27.9745 39.8226 32.8189 39.2553 37.7077 37.0305C38.103 36.844 38.4857 36.5064 38.9117 36.5098C39.2911 36.4541 39.7216 36.7156 39.5887 37.1305C39.4717 37.5944 38.7913 38.0661 37.861 38.497C35.9164 39.3633 33.246 40.1011 31.3048 40.3307C16.7352 42.2134 4.32816 25.7928 10.8355 12.3712C13.0709 6.7404 18.3095 2.62957 24.0603 0.968638C29.8873 -0.711619 36.3026 0.0898568 40.7279 4.52014C41.2198 5.0681 41.5378 5.80136 41.6582 6.49825C42.275 9.97699 38.6141 13.8263 35.0941 12.7384C29.9997 11.6254 29.3239 5.02717 33.7254 2.49201L33.9911 2.26237L33.8946 2.15323Z" fill="white"/>
</mask>
<g mask="url(#mask33_2648_250)">
<path d="M-1.8623 -1.86096H169.357V51.0591H-1.8623V-1.86096Z" fill="white"/>
</g>
</g>
<mask id="mask34_2648_250" style="mask-type:luminance" maskUnits="userSpaceOnUse" x="80" y="11" width="27" height="28">
<path d="M80.5459 11.2206H106.716V38.4491H80.5459V11.2206Z" fill="white"/>
</mask>
<g mask="url(#mask34_2648_250)">
<mask id="mask35_2648_250" style="mask-type:luminance" maskUnits="userSpaceOnUse" x="80" y="11" width="27" height="28">
<path d="M95.2778 24.2045L93.5263 24.5478C91.8747 24.8252 90.397 25.4948 89.2327 26.6953C87.6505 28.3278 87.4324 30.3389 87.9163 32.4637C88.399 34.5873 90.5015 35.7241 92.5074 34.8772C93.3604 34.5191 94.1021 33.8984 94.9029 33.4141C95.2289 33.2174 95.3221 32.9548 95.3175 32.5842L95.3096 24.7888C95.3096 24.616 95.2891 24.4421 95.2732 24.2045M106.574 35.4581C104.914 37.7591 102.788 38.4207 100.291 38.2388C98.5956 38.1138 97.1542 37.5181 96.2194 36.022L95.447 34.4259C94.5485 35.208 93.6501 36.0015 92.7403 36.7803C91.2829 38.0217 89.5394 38.4003 87.6868 38.3684C86.0035 38.34 84.461 37.8557 83.048 36.8883C80.5582 35.1841 79.3791 30.3435 82.689 27.457C84.5541 25.829 86.744 24.9298 89.0885 24.3659L95.0233 23.1734C95.096 23.1563 95.1687 23.137 95.1892 23.1325L95.1687 16.6195C95.1483 15.9101 94.9518 15.1802 94.7053 14.5027C94.0976 12.8099 92.6153 12.0687 90.8843 12.5325C89.5349 12.8906 89.1157 13.9911 88.8863 15.1882L88.3797 18.3236C88.0651 19.6901 87.2154 20.6575 85.8183 20.9645C84.578 21.2339 83.4296 20.9565 82.5516 19.9607C81.7383 19.0375 81.7872 17.9166 81.9927 16.8287C82.3585 14.9062 83.6874 13.7217 85.3344 12.8827C88.1696 11.44 91.2307 11.1899 94.3429 11.3957C95.9013 11.5003 97.3961 11.9118 98.7649 12.6939C100.823 13.8706 101.926 15.7168 102.313 17.9894C102.514 19.1831 102.587 20.412 102.603 21.625L102.614 31.8987C102.614 32.0567 102.614 32.2136 102.614 32.3704C102.598 34.2042 103.018 35.341 105.438 35.2285C105.772 35.2126 106.11 35.3649 106.569 35.4615" fill="white"/>
</mask>
<g mask="url(#mask35_2648_250)">
<path d="M-1.86328 -1.86108H169.356V51.059H-1.86328V-1.86108Z" fill="white"/>
</g>
</g>
<mask id="mask36_2648_250" style="mask-type:luminance" maskUnits="userSpaceOnUse" x="130" y="11" width="26" height="28">
<path d="M130.94 11.2206H155.106V38.4491H130.94V11.2206Z" fill="white"/>
</mask>
<g mask="url(#mask36_2648_250)">
<mask id="mask37_2648_250" style="mask-type:luminance" maskUnits="userSpaceOnUse" x="131" y="11" width="25" height="28">
<path d="M139.112 23.1734H148.173C148.229 22.2901 148.298 21.4477 148.329 20.6053C148.399 18.7511 148.358 16.9094 147.802 15.1154C147.367 13.7217 146.518 12.7303 145.04 12.4234C142.986 12.0005 141.238 12.9191 140.384 14.8494C139.216 17.4903 139.216 20.3074 139.112 23.1688M154.382 31.6815L154.753 32.0158C153.017 35.341 150.408 37.509 146.719 38.1468C143.896 38.6345 141.11 38.4446 138.46 37.2873C134.618 35.6116 132.386 32.6001 131.537 28.562C130.893 25.5107 130.945 22.447 132.117 19.5128C133.848 15.1643 137.11 12.5723 141.653 11.589C143.803 11.1217 145.966 11.1865 148.06 11.8516C152.039 13.1169 154.31 15.9215 154.966 19.9971C155.159 21.2021 155.011 22.4595 155.015 23.6929C155.015 24.1886 154.737 24.2852 154.286 24.2818L139.889 24.2727C139.656 24.2727 139.427 24.2727 139.145 24.2727C139.124 26.0633 139.278 27.7719 139.72 29.4488C140.014 30.5606 140.441 31.6133 141.158 32.5194C142.192 33.8256 143.562 34.5953 145.189 34.8533C147.13 35.1591 149.103 35.2126 150.911 34.3452C151.935 33.8541 152.816 33.056 153.746 32.375L154.379 31.6815" fill="white"/>
</mask>
<g mask="url(#mask37_2648_250)">
<path d="M-1.86328 -1.86108H169.356V51.059H-1.86328V-1.86108Z" fill="white"/>
</g>
</g>
<mask id="mask38_2648_250" style="mask-type:luminance" maskUnits="userSpaceOnUse" x="54" y="11" width="24" height="28">
<path d="M54.1094 11.2206H77.6387V38.4491H54.1094V11.2206Z" fill="white"/>
</mask>
<g mask="url(#mask38_2648_250)">
<mask id="mask39_2648_250" style="mask-type:luminance" maskUnits="userSpaceOnUse" x="54" y="11" width="24" height="28">
<path d="M77.2131 31.4678C77.7493 31.7133 77.697 32.0203 77.4869 32.4432C75.9012 35.607 73.3319 37.4851 69.8959 38.1058C65.9215 38.8277 62.1766 38.2229 58.9144 35.6752C56.6518 33.9063 55.2342 31.5769 54.6379 28.7507C53.9893 25.6881 53.9939 22.6413 55.1127 19.6901C56.7847 15.2893 60.0787 12.7462 64.5926 11.6981C67.029 11.1342 69.4779 11.1217 71.878 11.8311C74.7086 12.6655 76.8349 14.3298 77.4835 17.3652C78.0264 19.9083 76.4601 21.492 74.294 21.4033C72.4652 21.3271 71.0681 20.0004 70.8432 17.945L70.8023 15.6554C70.8023 15.1438 70.8341 14.6322 70.8228 14.1207C70.7898 12.8713 70.2026 12.2983 68.9543 12.2744C66.1555 12.2255 64.0088 13.9104 63.0387 16.9378C62.2243 19.4809 62.088 22.1093 62.1448 24.7524C62.1846 26.6271 62.414 28.4767 63.091 30.2423C64.3427 33.5152 66.9041 35.1034 70.4195 35.0386C73.0854 34.9909 75.139 33.9188 76.7951 31.9066L77.0609 31.6212" fill="white"/>
</mask>
<g mask="url(#mask39_2648_250)">
<path d="M-1.8623 -1.86108H169.357V51.059H-1.8623V-1.86108Z" fill="white"/>
</g>
</g>
<mask id="mask40_2648_250" style="mask-type:luminance" maskUnits="userSpaceOnUse" x="107" y="11" width="23" height="27">
<path d="M107.603 11.2206H129.288V37.6215H107.603V11.2206Z" fill="white"/>
</mask>
<g mask="url(#mask40_2648_250)">
<mask id="mask41_2648_250" style="mask-type:luminance" maskUnits="userSpaceOnUse" x="107" y="11" width="23" height="27">
<path d="M117.754 16.7684C118.72 15.0393 119.904 13.6967 121.418 12.6451C122.964 11.5685 124.644 11.0285 126.532 11.4639C128.115 11.8311 129.194 13.1726 129.271 14.8097C129.359 16.7969 128.744 18.0417 127.221 18.6783C125.667 19.3275 124.249 18.9125 123.005 17.8723L121.664 16.466C120.927 15.6361 120.173 15.6111 119.405 16.3978C118.297 17.5301 117.737 18.8239 117.762 20.4643L117.789 33.5801C117.789 34.0473 117.826 34.5271 117.935 34.9784C118.116 35.7446 118.639 36.2358 119.376 36.4813L120.947 36.9736C121.129 37.0418 121.257 37.2396 121.41 37.376L121.341 37.4772L107.682 37.5261C107.557 37.2157 107.634 37.0657 107.993 36.9611C109.812 36.4211 110.255 35.8049 110.255 33.9018L110.251 17.953C110.251 17.5426 110.206 17.1311 110.151 16.7241C110.038 15.934 109.53 15.4827 108.806 15.2451L108.298 15.1484C107.899 14.979 107.766 14.8176 107.621 14.6971L107.871 14.3583C109.515 13.774 110.996 13.2738 112.483 12.7656L116.159 11.5242C116.803 11.307 117.166 11.4923 117.25 12.1699C117.432 13.6489 117.577 15.1325 117.75 16.7639" fill="white"/>
</mask>
<g mask="url(#mask41_2648_250)">
<path d="M-1.8623 -1.86108H169.357V51.059H-1.8623V-1.86108Z" fill="white"/>
</g>
</g>
<mask id="mask42_2648_250" style="mask-type:luminance" maskUnits="userSpaceOnUse" x="141" y="58" width="27" height="2">
<path d="M141.192 58.3826H167.124V59.6172H141.192V58.3826Z" fill="white"/>
</mask>
<g mask="url(#mask42_2648_250)">
<mask id="mask43_2648_250" style="mask-type:luminance" maskUnits="userSpaceOnUse" x="141" y="58" width="27" height="2">
<path d="M141.776 59.5922L163.481 59.6115C164.5 59.6115 165.519 59.616 166.538 59.616C167.315 59.616 167.315 58.4064 166.538 58.4064L144.833 58.3871C143.814 58.3871 142.795 58.3826 141.776 58.3826C140.998 58.3826 140.998 59.5922 141.776 59.5922Z" fill="white"/>
</mask>
<g mask="url(#mask43_2648_250)">
<path d="M141.192 58.3826H167.12V59.6172H141.192V58.3826Z" fill="white"/>
</g>
</g>
</svg>
