<svg width="500" height="200" viewBox="0 0 500 200" fill="none" xmlns="http://www.w3.org/2000/svg">
<path d="M102.5 119.44V118.851L103.959 118.32C104.737 118.006 105.341 117.633 105.769 117.201C106.197 116.73 106.547 116.082 106.819 115.257L118.843 80.4425H123.804L135.653 115.493C135.964 116.357 136.314 117.024 136.703 117.496C137.092 117.928 137.696 118.301 138.513 118.615L139.213 118.851V119.44H124.388V118.851L125.263 118.556C126.081 118.242 126.567 117.81 126.723 117.26C126.917 116.671 126.898 115.984 126.664 115.198L123.921 106.716H110.963L108.162 115.022C107.889 115.885 107.792 116.573 107.87 117.083C107.987 117.594 108.454 118.006 109.271 118.32L110.555 118.851V119.44H102.5ZM111.372 105.537H123.571L117.676 87.217L111.372 105.537ZM153.828 120.5C151.688 120.5 149.509 120.225 147.291 119.675C145.073 119.165 143.224 118.477 141.746 117.614L142.038 109.602H142.621L144.431 113.431C144.975 114.531 145.559 115.513 146.182 116.376C146.804 117.201 147.66 117.849 148.75 118.32C149.528 118.713 150.268 118.988 150.968 119.145C151.707 119.263 152.524 119.322 153.419 119.322C155.793 119.322 157.661 118.674 159.023 117.378C160.423 116.082 161.124 114.413 161.124 112.371C161.124 110.446 160.657 108.954 159.723 107.894C158.789 106.794 157.291 105.734 155.229 104.713L152.836 103.652C149.489 102.16 146.863 100.452 144.956 98.5273C143.088 96.5637 142.154 93.9717 142.154 90.7514C142.154 88.4344 142.738 86.4315 143.905 84.7428C145.112 83.0541 146.765 81.7581 148.867 80.8549C151.007 79.9516 153.497 79.5 156.338 79.5C158.4 79.5 160.346 79.7749 162.175 80.3247C164.042 80.8745 165.657 81.6207 167.019 82.5632L166.669 89.6322H166.085L163.692 85.2141C163.031 83.8396 162.369 82.8774 161.708 82.3276C161.046 81.7385 160.287 81.3262 159.431 81.0905C158.925 80.9334 158.458 80.8352 158.03 80.796C157.602 80.7174 157.057 80.6782 156.396 80.6782C154.412 80.6782 152.738 81.2672 151.377 82.4454C150.015 83.5843 149.334 85.1355 149.334 87.0991C149.334 89.102 149.859 90.7122 150.91 91.9296C151.96 93.1078 153.497 94.1681 155.521 95.1106L158.206 96.2888C161.941 97.9382 164.626 99.7055 166.26 101.591C167.895 103.436 168.712 105.832 168.712 108.777C168.712 112.233 167.408 115.061 164.801 117.26C162.233 119.42 158.575 120.5 153.828 120.5ZM196.977 120.5C194.836 120.5 192.657 120.225 190.439 119.675C188.221 119.165 186.373 118.477 184.894 117.614L185.186 109.602H185.77L187.579 113.431C188.124 114.531 188.708 115.513 189.33 116.376C189.953 117.201 190.809 117.849 191.899 118.32C192.677 118.713 193.416 118.988 194.117 119.145C194.856 119.263 195.673 119.322 196.568 119.322C198.942 119.322 200.809 118.674 202.171 117.378C203.572 116.082 204.272 114.413 204.272 112.371C204.272 110.446 203.806 108.954 202.872 107.894C201.938 106.794 200.44 105.734 198.377 104.713L195.984 103.652C192.638 102.16 190.011 100.452 188.105 98.5273C186.237 96.5637 185.303 93.9717 185.303 90.7514C185.303 88.4344 185.887 86.4315 187.054 84.7428C188.26 83.0541 189.914 81.7581 192.015 80.8549C194.156 79.9516 196.646 79.5 199.486 79.5C201.549 79.5 203.494 79.7749 205.323 80.3247C207.191 80.8745 208.806 81.6207 210.168 82.5632L209.817 89.6322H209.234L206.841 85.2141C206.179 83.8396 205.518 82.8774 204.856 82.3276C204.195 81.7385 203.436 81.3262 202.58 81.0905C202.074 80.9334 201.607 80.8352 201.179 80.796C200.751 80.7174 200.206 80.6782 199.545 80.6782C197.56 80.6782 195.887 81.2672 194.525 82.4454C193.163 83.5843 192.482 85.1355 192.482 87.0991C192.482 89.102 193.008 90.7122 194.058 91.9296C195.109 93.1078 196.646 94.1681 198.669 95.1106L201.354 96.2888C205.09 97.9382 207.775 99.7055 209.409 101.591C211.043 103.436 211.86 105.832 211.86 108.777C211.86 112.233 210.557 115.061 207.95 117.26C205.381 119.42 201.724 120.5 196.977 120.5ZM214.637 119.44V118.851L215.98 118.32C216.641 118.046 217.089 117.692 217.322 117.26C217.595 116.789 217.731 116.161 217.731 115.375V84.625C217.731 83.8396 217.614 83.2309 217.381 82.7989C217.186 82.3276 216.719 81.9545 215.98 81.6796L214.637 81.1494V80.5603H242.595L242.946 89.6322H242.362L239.852 84.0948C239.502 83.3879 239.132 82.8185 238.743 82.3865C238.354 81.9545 237.77 81.7385 236.992 81.7385H226.486V98.7629H232.731C233.51 98.7629 234.093 98.5665 234.482 98.1739C234.91 97.7418 235.28 97.1724 235.591 96.4655L236.759 94.1092H237.342V104.713H236.759L235.591 102.239C235.241 101.532 234.872 100.982 234.482 100.589C234.093 100.157 233.51 99.9411 232.731 99.9411H226.486V118.261H238.276C239.054 118.261 239.658 118.065 240.086 117.672C240.514 117.24 240.864 116.651 241.136 115.905L243.529 110.368H244.113L243.763 119.44H214.637ZM247.013 119.44V118.851L248.356 118.32C249.017 118.046 249.464 117.692 249.698 117.26C249.97 116.789 250.107 116.161 250.107 115.375V84.625C250.107 83.8396 249.99 83.2309 249.756 82.7989C249.562 82.3276 249.095 81.9545 248.356 81.6796L247.013 81.1494V80.5603H274.971L275.321 89.6322H274.738L272.228 84.0948C271.878 83.3879 271.508 82.8185 271.119 82.3865C270.73 81.9545 270.146 81.7385 269.368 81.7385H258.862V98.7629H265.107C265.885 98.7629 266.469 98.5665 266.858 98.1739C267.286 97.7418 267.656 97.1724 267.967 96.4655L269.134 94.1092H269.718V104.713H269.134L267.967 102.239C267.617 101.532 267.247 100.982 266.858 100.589C266.469 100.157 265.885 99.9411 265.107 99.9411H258.862V118.261H270.652C271.43 118.261 272.033 118.065 272.461 117.672C272.889 117.24 273.24 116.651 273.512 115.905L275.905 110.368H276.489L276.138 119.44H247.013ZM280.148 119.44V118.851L282.074 118.261C282.774 118.065 283.28 117.692 283.592 117.142C283.902 116.553 284.059 115.866 284.059 115.08V86.7457C283.63 85.8032 283.28 85.0963 283.008 84.625C282.774 84.1537 282.502 83.761 282.19 83.4468C281.879 83.0934 281.451 82.6614 280.906 82.1509L279.914 81.1494V80.5603H290.246L309.624 107.246V85.0374C309.624 84.2519 309.487 83.545 309.215 82.9167C308.982 82.2883 308.475 81.876 307.698 81.6796L305.772 81.1494V80.5603H314.118V81.1494L312.542 81.6796C311.842 81.9152 311.413 82.3276 311.258 82.9167C311.101 83.5057 311.025 84.193 311.025 84.9784V119.616H307.756L285.46 88.6897V115.08C285.46 115.866 285.577 116.533 285.81 117.083C286.043 117.633 286.529 118.026 287.269 118.261L289.02 118.851V119.44H280.148ZM330.233 119.44V118.851L331.401 118.379C332.178 118.104 332.685 117.731 332.918 117.26C333.19 116.789 333.327 116.161 333.327 115.375V84.625C333.327 83.8396 333.21 83.2112 332.976 82.7399C332.743 82.2687 332.218 81.8956 331.401 81.6207L330.233 81.1494V80.5603H345.234V81.1494L344.066 81.6207C343.287 81.8956 342.762 82.2687 342.49 82.7399C342.257 83.2112 342.14 83.8396 342.14 84.625V115.375C342.14 116.161 342.257 116.789 342.49 117.26C342.762 117.692 343.287 118.065 344.066 118.379L345.234 118.851V119.44H330.233ZM348.548 119.44V118.851L350.474 118.261C351.174 118.065 351.68 117.692 351.992 117.142C352.302 116.553 352.458 115.866 352.458 115.08V86.7457C352.03 85.8032 351.68 85.0963 351.408 84.625C351.174 84.1537 350.901 83.761 350.591 83.4468C350.279 83.0934 349.85 82.6614 349.307 82.1509L348.314 81.1494V80.5603H358.645L378.023 107.246V85.0374C378.023 84.2519 377.887 83.545 377.615 82.9167C377.381 82.2883 376.874 81.876 376.097 81.6796L374.171 81.1494V80.5603H382.518V81.1494L380.942 81.6796C380.241 81.9152 379.813 82.3276 379.658 82.9167C379.501 83.5057 379.424 84.193 379.424 84.9784V119.616H376.156L353.859 88.6897V115.08C353.859 115.866 353.976 116.533 354.21 117.083C354.443 117.633 354.928 118.026 355.669 118.261L357.42 118.851V119.44H348.548ZM392.48 100C391.08 100 389.892 99.509 388.92 98.5273C387.948 97.5456 387.461 96.3673 387.461 94.9928C387.461 93.6183 387.948 92.4205 388.92 91.3994C389.892 90.3783 391.08 89.8678 392.48 89.8678C393.881 89.8678 395.069 90.3783 396.041 91.3994C397.013 92.4205 397.5 93.6183 397.5 94.9928C397.5 96.3673 397.013 97.5456 396.041 98.5273C395.069 99.509 393.881 100 392.48 100ZM392.48 120.323C391.08 120.323 389.892 119.832 388.92 118.851C387.948 117.869 387.461 116.691 387.461 115.316C387.461 113.942 387.948 112.744 388.92 111.723C389.892 110.702 391.08 110.191 392.48 110.191C393.881 110.191 395.069 110.702 396.041 111.723C397.013 112.744 397.5 113.942 397.5 115.316C397.5 116.691 397.013 117.869 396.041 118.851C395.069 119.832 393.881 120.323 392.48 120.323Z" fill="black"/>
</svg>
