<svg width="500" height="200" viewBox="0 0 500 200" fill="none" xmlns="http://www.w3.org/2000/svg">
<path fill-rule="evenodd" clip-rule="evenodd" d="M86.1053 68.6591C79.3223 69.6898 74.8049 75.991 72.9497 87.0096C71.9247 93.0978 71.7068 102.246 72.4065 109.816C73.4515 121.122 76.595 127.747 82.1202 130.289C85.6493 131.912 90.8447 131.89 94.3879 130.236C99.8507 127.687 102.489 121.605 102.847 110.741L102.928 108.255L102.398 108.191C101.531 108.087 93.4726 107.762 93.4048 107.828C93.3704 107.862 93.3008 108.933 93.2502 110.208C92.9665 117.367 91.9453 120.88 89.8616 121.866C89.1696 122.194 87.6544 122.205 86.9542 121.888C85.3399 121.158 84.5626 118.711 84.1291 112.998C83.748 107.974 83.7473 94.2264 84.1279 89.0087C84.5203 83.6324 85.3095 80.124 86.4242 78.8019C87.013 78.1034 87.6103 77.8642 88.6383 77.9149C89.3638 77.9508 89.5742 78.0111 89.9504 78.2918C91.6051 79.5256 92.2827 82.167 92.5642 88.4795C92.6405 90.1934 92.7127 91.6086 92.7244 91.6243C92.7361 91.64 94.8796 91.5746 97.4876 91.479C100.096 91.3835 102.34 91.3045 102.475 91.3035C102.714 91.3018 102.72 91.2485 102.683 89.4497C102.475 79.2758 100.39 73.4392 95.9371 70.5583C93.3699 68.8975 89.4806 68.1463 86.1053 68.6591ZM118.707 68.5709C110.513 69.2987 105.845 75.9957 104.339 89.1838C103.94 92.6789 103.814 95.2962 103.814 100.062C103.815 104.796 103.936 107.273 104.34 110.824C105.492 120.946 108.517 127.248 113.513 129.932C116.477 131.525 120.755 131.944 124.368 130.996C128.139 130.006 130.839 127.66 132.9 123.581C134.906 119.61 135.931 115.206 136.593 107.706C136.78 105.587 136.791 94.3587 136.608 92.4777C136.542 91.7986 136.497 91.2299 136.508 91.214C136.519 91.198 136.707 91.6478 136.926 92.2136C138.045 95.0978 139.905 97.7583 142.693 100.459C143.452 101.195 145.673 103.099 147.628 104.691C152.643 108.773 154.106 110.262 155.212 112.41C155.939 113.82 156.215 115.054 156.147 116.578C156.051 118.691 155.266 120.345 153.906 121.298C153.066 121.886 152.289 122.111 151.105 122.111C149.268 122.111 148.09 121.374 147.281 119.718C147.024 119.191 146.727 118.376 146.621 117.907C146.449 117.144 146.197 114.419 146.192 113.262L146.191 112.821H141.181H136.171L136.247 114.732C136.504 121.195 138.489 126.113 141.917 128.783C144.729 130.974 148.759 131.897 153.087 131.342C157.825 130.735 161.588 128.33 163.836 124.473L164.353 123.587V126.966V130.346L168.532 130.315L172.712 130.284L172.772 108.059C172.805 95.835 172.869 85.913 172.915 86.01C172.961 86.1071 174.688 96.1216 176.754 108.265L180.509 130.343H183.615H186.72L186.78 130.078C186.813 129.933 188.519 120.05 190.571 108.118C192.622 96.1848 194.329 86.3026 194.364 86.157C194.399 86.0116 194.479 85.8924 194.544 85.8924C194.621 85.8924 194.662 93.667 194.662 108.118V130.343H199.654H204.645L204.663 116.849C204.674 108.155 204.717 103.899 204.782 104.884C205.401 114.118 206.401 119.051 208.555 123.464C210.148 126.727 212.723 129.3 215.557 130.462C218.047 131.482 221.402 131.768 224.388 131.215C230.844 130.017 234.926 124.461 236.693 114.468C236.969 112.909 237.422 109.261 237.518 107.824C237.54 107.5 237.568 112.435 237.58 118.789L237.601 130.343H243.254H248.907V118.172V106.001L252.065 105.999C255.361 105.996 256.241 105.924 257.915 105.517C260.266 104.946 262.194 103.877 263.822 102.243C265.467 100.591 266.667 98.4584 267.423 95.848L267.768 94.6532L267.703 98.181C267.435 112.987 269.774 123.063 274.586 127.819C276.471 129.682 278.712 130.808 281.502 131.297C282.664 131.501 285.753 131.501 286.915 131.297C291.957 130.414 295.399 127.359 297.662 121.758C299.699 116.717 300.743 109.344 300.743 100.004C300.743 85.9721 298.452 76.7395 293.839 72.1937C291.94 70.3218 289.692 69.1918 286.915 68.7128C285.736 68.5093 282.651 68.5077 281.502 68.7097C274.659 69.9134 270.534 75.3791 268.757 85.5985C268.611 86.4393 268.469 87.1492 268.441 87.1762C268.415 87.2031 268.392 86.9045 268.392 86.5125C268.392 84.5562 267.891 81.6019 267.229 79.6635C265.472 74.5124 261.557 71.3854 255.458 70.2611C252.973 69.8032 252.162 69.7603 244.848 69.7002L237.601 69.6406L237.58 81.2061C237.568 87.5672 237.54 92.5071 237.518 92.1837C237.497 91.8603 237.369 90.6168 237.237 89.4203C235.896 77.3889 232.038 70.7898 225.31 69.0157C221.918 68.1213 217.801 68.4496 214.929 69.8435C211.083 71.7105 208.398 75.4958 206.748 81.3812C205.717 85.0578 205.226 88.4937 204.782 95.1235C204.717 96.1085 204.674 91.8521 204.663 83.1584L204.645 69.6646H197.308C193.273 69.6646 189.972 69.6917 189.972 69.725C189.972 69.8184 184.807 100.135 184.726 100.515C184.687 100.699 184.61 100.805 184.555 100.75C184.5 100.695 183.342 93.7977 181.983 85.4221C180.623 77.0465 179.482 70.0746 179.446 69.9292L179.383 69.6646H171.868H164.353L164.341 76.2204L164.33 82.7762L164.116 81.5415C163.209 76.3095 161.097 72.5661 157.903 70.5281C156.163 69.4176 154.25 68.8119 151.754 68.5811C148.972 68.3236 146.17 68.7852 143.845 69.8834C140.431 71.4968 138.062 74.3001 136.687 78.3541C136.201 79.7901 135.732 82.1745 135.718 83.2907C135.71 83.9476 135.514 84.7309 135.494 84.1855C135.49 84.055 135.297 83.2131 135.065 82.3144C133.385 75.7935 130.573 71.6709 126.512 69.7758C124.364 68.7736 121.465 68.326 118.707 68.5709ZM300.987 100.004V130.343H313.857H326.727V125.639V120.935H319.51H312.293V95.2999V69.6646H306.64H300.987V100.004ZM328.651 100.004V130.343H334.304H339.957V100.004V69.6646H334.304H328.651V100.004ZM341.882 74.3683V79.0721H346.753H351.624V104.707V130.343H357.277H362.93V104.707V79.0721H367.741C370.387 79.0721 372.552 79.1011 372.552 79.1367C372.552 79.222 365.361 129.331 365.267 129.902L365.195 130.343H369.955C374.41 130.343 374.717 130.33 374.717 130.137C374.717 129.838 376.155 117.398 376.225 117.084L376.286 116.82H380.843H385.401L385.47 117.261C385.508 117.503 385.867 120.427 386.266 123.758C386.666 127.088 387.019 129.933 387.052 130.079L387.111 130.344L397.001 130.314L406.891 130.284L406.921 111.969C406.938 101.895 406.992 93.6544 407.042 93.6554C407.092 93.6563 409.376 100.469 412.119 108.796C414.862 117.122 417.584 125.376 418.169 127.138L419.231 130.343H423.616H428V100.004V69.6646H423.49H418.979V85.6503C418.979 95.3539 418.936 101.663 418.867 101.704C418.806 101.741 418.728 101.678 418.693 101.564C418.588 101.217 408.882 71.1879 408.62 70.3995L408.376 69.6646H402.852H397.331L397.299 97.3737L397.269 125.083L393.8 97.5795C391.893 82.4526 390.306 69.9835 390.275 69.8704C390.221 69.6769 389.727 69.6646 382.069 69.6646H373.919L373.311 73.8097L372.703 77.9549L372.687 73.8097L372.672 69.6646H357.277H341.882V74.3683ZM121.524 78.1261C123.31 79.0171 124.129 82.1632 124.418 89.2439C124.573 93.0426 124.573 106.965 124.418 110.763C124.129 117.844 123.31 120.99 121.524 121.881C120.974 122.155 119.797 122.191 119.211 121.952C117.667 121.321 116.815 118.924 116.341 113.877C116.112 111.437 116.112 88.5705 116.341 86.1307C116.812 81.1166 117.66 78.7102 119.184 78.0607C119.749 77.8203 120.979 77.8546 121.524 78.1261ZM151.789 78.2166C152.381 78.5178 153.178 79.3425 153.53 80.0182C154.091 81.0924 154.385 82.6304 154.457 84.8635L154.524 86.9508H159.438H164.353V96.5641V106.177L163.721 105.06C162.89 103.591 161.987 102.352 160.584 100.756C159.149 99.1243 158.142 98.1983 154.069 94.7689C149.363 90.8067 147.686 89.0541 146.636 87.0025C145.931 85.6269 145.777 84.9604 145.777 83.3054C145.777 80.65 146.542 79.1003 148.276 78.2438C148.98 77.8959 149.074 77.8798 150.16 77.9232C151.021 77.9576 151.422 78.0299 151.789 78.2166ZM222.36 78.0545C222.887 78.2701 223.617 79.087 223.959 79.8457C224.514 81.0711 224.935 83.197 225.226 86.2452C225.418 88.2517 225.509 107.415 225.344 111.097C225.049 117.637 224.37 120.438 222.776 121.684C222.415 121.965 222.176 122.048 221.607 122.088C220.56 122.162 220.135 122.045 219.515 121.512C218.138 120.327 217.438 117.344 217.158 111.465C217.004 108.268 217.003 92.0001 217.155 88.6712C217.461 81.9883 218.292 78.9967 220.101 78.0804C220.55 77.853 221.832 77.8383 222.36 78.0545ZM285.416 78.1172C286.638 78.6598 287.386 80.3431 287.87 83.6368C288.29 86.4977 288.358 88.8062 288.358 100.004C288.358 111.201 288.29 113.51 287.87 116.371C287.255 120.558 286.268 122.101 284.198 122.109C281.909 122.117 280.838 119.949 280.279 114.174C280.158 112.925 280.119 109.501 280.119 100.004C280.119 86.8951 280.153 85.832 280.668 82.8684C281.116 80.2777 281.868 78.7186 282.935 78.1693C283.604 77.8243 284.705 77.8012 285.416 78.1172ZM252.651 79.2414C254.856 79.6981 256.107 81.0935 256.759 83.8223C256.984 84.765 257.015 85.2583 257.02 87.9503C257.027 91.3587 256.906 92.2572 256.22 93.8688C255.761 94.9492 254.798 96.0021 253.84 96.4755C252.939 96.9199 251.581 97.1814 250.175 97.1814H249.028V88.1267V79.0721L250.441 79.0741C251.218 79.0752 252.214 79.1505 252.651 79.2414ZM382.754 93.1539C383.635 100.899 384.385 107.408 384.421 107.618L384.486 108H380.92H377.352L377.419 107.618C377.456 107.408 378.244 101.018 379.172 93.4184C380.1 85.819 380.885 79.4821 380.917 79.3366C380.95 79.1912 381.016 79.0721 381.064 79.0721C381.112 79.0721 381.872 85.4088 382.754 93.1539Z" fill="#EC008C"/>
</svg>
