<svg width="500" height="200" viewBox="0 0 500 200" fill="none" xmlns="http://www.w3.org/2000/svg">
<path fill-rule="evenodd" clip-rule="evenodd" d="M156.5 63.5633C156.5 63.9779 156.521 64.124 156.579 64.1165C156.622 64.111 157.902 64.1098 159.422 64.1139L162.186 64.1212V99.9689V135.816H159.343H156.5V136.346V136.875L156.69 136.88C156.794 136.882 163.858 136.884 172.389 136.884C180.919 136.884 187.941 136.882 187.993 136.88C188.077 136.876 188.088 135.742 188.088 127.065V117.254H187.614H187.14L187.136 117.581C187.133 117.761 187.122 117.964 187.111 118.033C187.1 118.101 187.073 118.578 187.051 119.092C186.867 123.497 185.973 127.787 184.732 130.225C184.126 131.416 183.578 132.101 182.546 132.956C180.703 134.485 178.807 135.228 175.958 135.541C175.294 135.614 172.489 135.742 171.33 135.752L171.157 135.754V117.649V99.5448L172.025 99.5837C175.066 99.7199 176.646 100.53 178.059 102.678C179.245 104.482 179.848 106.665 179.977 109.624C179.997 110.103 180.024 110.552 180.035 110.62C180.046 110.689 180.057 111.214 180.06 111.788L180.065 112.832H180.57H181.075V98.9722V85.1128H180.57H180.065L180.06 86.2496C180.057 86.8748 180.046 87.4424 180.035 87.5109C180.024 87.5795 179.997 88.0302 179.976 88.5126C179.872 90.866 179.428 92.8391 178.67 94.3146C178.197 95.235 177.703 95.9087 176.964 96.6427C176.43 97.1737 176.283 97.2804 175.701 97.5622C174.579 98.105 173.296 98.3805 171.891 98.3805H171.157V81.2508V64.1212L172.404 64.1215C176.443 64.1223 178.786 64.6864 180.869 66.1586C181.599 66.6746 182.517 67.4824 182.888 67.9359C184.387 69.7665 185.43 72.9962 185.999 77.5758C186.147 78.7652 186.311 80.7815 186.326 81.5934C186.331 81.9018 186.35 82.2463 186.367 82.359L186.397 82.5641L186.848 82.5459L187.298 82.5278L187.314 72.7639L187.33 63H171.915H156.5V63.5633ZM209.252 63.4983V63.9966H212.095H214.938V99.9377V135.879H212.095H209.252V136.439V137L225.03 136.984L240.808 136.969L240.824 127.174L240.84 117.379H240.371H239.903L239.87 117.83C239.851 118.079 239.805 118.818 239.767 119.473C239.468 124.629 238.386 129.061 236.872 131.339C236.089 132.518 234.668 133.684 233.101 134.435C231.186 135.352 229.277 135.693 225.504 135.794L223.908 135.836V99.9794V64.1226L226.483 64.1063L229.057 64.0901L229.076 63.545L229.094 63H219.173H209.252V63.4983ZM259.982 63.4983V63.9966H262.825H265.668V99.9371V135.878L262.809 135.894L259.95 135.91L259.946 136.377C259.944 136.634 259.955 136.879 259.969 136.922C259.99 136.984 263.202 137 275.751 137H291.506V127.189V117.379H291.043H290.578L290.537 118.453C290.369 122.779 289.583 127.044 288.475 129.629C287.85 131.088 287.253 131.941 286.253 132.807C284.385 134.423 282.387 135.248 279.503 135.595C278.59 135.706 276.548 135.815 275.381 135.816L274.575 135.816V99.9689V64.1212H277.166H279.756V63.5606V63H269.869H259.982V63.4983ZM311.925 63.545L311.944 64.0901L314.802 64.1063L317.661 64.1225L317.645 99.9539L317.63 135.785L314.771 135.802L311.912 135.818V136.347C311.912 136.852 311.918 136.875 312.054 136.88C312.133 136.882 319.24 136.889 327.848 136.895L343.5 136.907V127.08V117.254H343.026H342.552V117.769C342.552 118.989 342.321 121.698 342.07 123.417C341.56 126.919 340.68 129.652 339.513 131.365C339.044 132.054 337.897 133.109 336.93 133.745C334.813 135.135 332.624 135.618 327.975 135.719L326.569 135.749V117.647V99.5449L327.469 99.5828C329.579 99.6715 331.234 100.214 332.201 101.133C334.515 103.334 335.474 106.399 335.476 111.601L335.477 112.832H336.014H336.551L336.535 98.9878L336.519 85.1439H336.014H335.508L335.469 86.9192C335.41 89.5836 335.237 91.0157 334.786 92.5943C334.257 94.445 333.079 96.2428 331.758 97.2122C330.803 97.9129 329.04 98.3805 327.352 98.3805H326.569V81.2421V64.1037L328.385 64.1388C331.347 64.1961 332.929 64.4615 334.593 65.1801C336.029 65.8004 337.793 67.1799 338.63 68.3366C339.823 69.9847 340.74 72.7868 341.286 76.4545C341.518 78.008 341.698 79.9104 341.769 81.5467L341.813 82.5589H342.278H342.742V72.7795V63H327.325H311.907L311.925 63.545Z" fill="black"/>
</svg>
