<svg width="500" height="200" viewBox="0 0 500 200" fill="none" xmlns="http://www.w3.org/2000/svg">
<g clip-path="url(#clip0_2674_380)">
<path d="M293.829 21.5H206.171C187.023 21.5 171.5 37.0227 171.5 56.1708V143.829C171.5 162.977 187.023 178.5 206.171 178.5H293.829C312.977 178.5 328.5 162.977 328.5 143.829V56.1708C328.5 37.0227 312.977 21.5 293.829 21.5Z" fill="#F8C54F"/>
<path fill-rule="evenodd" clip-rule="evenodd" d="M187.123 65.6327V68.0623L189.004 68.2572C194.045 68.7796 195.98 69.644 197.099 71.8751C197.737 73.1468 197.753 73.832 197.753 99.5094C197.753 127.921 197.779 127.467 196.026 129.347C194.966 130.482 192.805 131.197 189.539 131.493L186.959 131.727L186.941 133.853C186.93 135.022 186.983 136.163 187.058 136.388C187.165 136.712 194.047 136.797 220.011 136.797C238.06 136.797 252.895 136.687 252.976 136.552C253.057 136.416 253.231 130.964 253.364 124.435L253.604 112.564L251.052 112.66L248.5 112.756L247.926 115.373C246.689 121.015 245.324 123.693 242.135 126.735C238.507 130.195 236.339 130.747 226.373 130.744C218.318 130.741 216.532 130.387 215.116 128.51C213.738 126.683 213.62 125.485 213.619 113.165L213.617 101.472L218.768 101.491C221.602 101.502 224.628 101.627 225.494 101.77C228.475 102.26 229.8 103.998 230.407 108.213L230.755 110.63H233.307H235.859V98.3646V86.099H233.271H230.683L230.469 87.4891C229.816 91.7451 229.527 92.7067 228.641 93.5934C227.378 94.8563 225.025 95.2573 218.877 95.2573H213.78L213.777 82.3048L213.773 69.3523L224.243 69.4995C236.525 69.6719 237.259 69.8063 239.797 72.3435C241.593 74.1398 242.59 75.9734 243.853 79.8026L244.743 82.501H247.646H250.547L250.726 81.3562C250.824 80.7266 250.99 79.6597 251.096 78.9849C251.396 77.0646 253.461 73.451 255.067 72.0373C255.865 71.3357 257.239 70.5213 258.123 70.2279C259.974 69.613 264.576 69.1122 268.494 69.0995L271.201 69.0906L271.11 97.9557L271.02 126.821L270.287 128.192C269.124 130.368 267.682 131.265 264.945 131.514L262.617 131.727L262.566 134.262L262.516 136.797H279.129H295.742L295.647 134.262L295.551 131.727L293.752 131.528C291.478 131.277 289.034 130.13 288.161 128.904C287.79 128.383 287.354 127.039 287.192 125.917C287.029 124.795 286.894 111.624 286.89 96.6474L286.884 69.4177H291.644C299.764 69.4177 302.178 70.3512 304.989 74.5797C306.384 76.678 306.962 78.2696 307.662 81.9424L307.836 82.8553L310.361 82.7601L312.887 82.6646L312.973 72.9339L313.06 63.2031H250.092H187.123V65.6327Z" fill="black"/>
</g>
<defs>
<clipPath id="clip0_2674_380">
<rect width="157" height="157" fill="white" transform="translate(171.5 21.5)"/>
</clipPath>
</defs>
</svg>
