<svg width="500" height="200" viewBox="0 0 500 200" fill="none" xmlns="http://www.w3.org/2000/svg">
<path fill-rule="evenodd" clip-rule="evenodd" d="M202.075 71.923C196.33 73.0052 192.331 74.8884 189.709 77.7464C187.621 80.0227 186.802 82.1868 186.813 85.3984C186.822 88.2175 187.605 90.1582 189.456 91.9491C193.237 95.6068 198.469 96.8257 213.854 97.6312C221.59 98.0366 223.793 98.389 226.35 99.6312C228.649 100.748 229.461 101.912 229.419 104.029C229.345 107.668 226.119 110.011 219.624 111.143C211.096 112.628 198.903 110.55 192.061 106.445C190.907 105.753 189.831 105.187 189.669 105.187C189.354 105.187 185.362 111.131 185.362 111.601C185.362 112.079 189.731 114.489 192.603 115.594C194.106 116.173 197.027 117.012 199.095 117.46C202.462 118.189 203.832 118.274 212.231 118.273C220.791 118.272 221.859 118.203 224.493 117.479C230.633 115.79 234.763 112.978 236.819 109.087C237.738 107.348 237.836 106.816 237.836 103.57C237.836 100.365 237.732 99.7788 236.867 98.1476C234.271 93.243 228.142 90.7633 216.919 90.077C205.311 89.3673 202.086 89.035 199.714 88.3052C195.441 86.9901 194.406 84.5769 196.982 81.9299C199.392 79.4524 205.612 78.0572 212.952 78.3479C220.078 78.63 225.882 80.1908 230.428 83.0466L232.381 84.2734L232.969 83.5012C233.292 83.0768 234.271 81.7021 235.144 80.4463C237.009 77.7647 237.134 77.9825 232.427 75.727C229.02 74.0943 227.015 73.4008 222.87 72.421C218.872 71.476 206.076 71.1695 202.075 71.923ZM127.102 72.5787C127.007 72.8259 126.972 82.9719 127.024 95.1257L127.117 117.224L131.535 117.325L135.953 117.426V94.7775V72.1296H131.614C128.475 72.1296 127.227 72.2539 127.102 72.5787ZM315.557 94.7783V117.427L319.614 117.325L323.672 117.224L323.765 94.6766L323.857 72.1296H319.707H315.557V94.7783ZM243.787 78.0583V82.5497H240.903H238.017V85.9632V89.3767H240.875H243.733L243.85 100.426L243.968 111.475L245.049 113.63C246.941 117.398 250.092 118.713 256.395 118.367C259.821 118.178 264.892 117.338 265.349 116.882C265.512 116.719 264.829 113.89 263.94 111.048L263.582 109.904L262.07 110.462C261.159 110.799 259.238 111.04 257.234 111.068C254.224 111.111 253.834 111.038 253.087 110.297C252.275 109.49 252.261 109.338 252.135 99.4278L252.008 89.3767H257.816H263.623V85.9632V82.5497H257.853H252.083V78.0583V73.5668H247.935H243.787V78.0583ZM158.867 81.8469C156.154 82.272 153.656 83.0833 151.021 84.3962C149.886 84.9618 148.879 85.4243 148.784 85.4243C148.688 85.4243 148.625 85.0606 148.644 84.6158C148.735 82.461 148.916 82.5497 144.425 82.5497H140.274L140.367 99.8867L140.461 117.224L144.518 117.325L148.576 117.427V105.751C148.576 92.3119 148.208 93.6475 152.536 91.3816C155.673 89.7393 158.778 89.0292 162.854 89.0227C166.69 89.0163 169.179 89.6609 170.615 91.031C172.436 92.7693 172.667 94.2961 172.936 106.354L173.183 117.403H177.31H181.438L181.321 104.917C181.208 92.7345 181.184 92.3788 180.346 90.2933C178.757 86.343 175.221 83.4879 170.544 82.3804C167.598 81.6827 161.651 81.4111 158.867 81.8469ZM346.08 81.8688C333.493 83.1782 325.691 91.967 327.399 102.914C328.94 112.789 337.186 118.466 350 118.474C358.644 118.48 366.034 116.458 370.659 112.82L371.482 112.172L369.496 109.527C368.404 108.073 367.449 106.822 367.374 106.747C367.299 106.673 366.298 107.175 365.149 107.865C361.467 110.074 357.422 110.945 350.721 110.972C345.266 110.994 342.222 110.26 339.648 108.304C338.181 107.189 336.493 104.811 336.48 103.839C336.476 103.486 340.364 103.39 354.738 103.39H373L372.752 100.965C372.389 97.4264 371.891 95.6249 370.458 92.6727C366.675 84.8774 357.263 80.7057 346.08 81.8688ZM266.253 82.8088C266.341 82.9629 268.195 86.3225 270.372 90.275C272.549 94.2275 276.71 101.765 279.616 107.026C282.523 112.286 284.902 116.673 284.902 116.776C284.902 116.878 283.523 119.309 281.838 122.178C280.153 125.047 278.673 127.658 278.549 127.98C278.348 128.504 278.787 128.554 282.785 128.464L287.245 128.362L290.694 122.254C292.591 118.894 297.04 110.972 300.581 104.648C304.122 98.3236 308.363 90.7647 310.007 87.8496L312.996 82.5497L308.416 82.5558L303.836 82.5616L296.808 95.4596C292.942 102.553 289.665 108.287 289.526 108.201C289.386 108.115 288.296 106.148 287.105 103.831C285.913 101.513 282.942 95.8174 280.502 91.1733L276.066 82.7294L271.079 82.6291C268.336 82.5742 266.165 82.655 266.253 82.8088ZM356.288 89.8445C357.565 90.2599 359.268 91.1003 360.073 91.7119C361.471 92.7744 363.144 95.1628 363.157 96.1138C363.162 96.4653 360.257 96.563 349.819 96.563C339.088 96.563 336.475 96.4714 336.475 96.0944C336.475 95.1135 338.665 92.2437 340.105 91.3382C344.366 88.6585 350.815 88.0631 356.288 89.8445Z" fill="black"/>
</svg>
