<svg width="500" height="200" viewBox="0 0 500 200" fill="none" xmlns="http://www.w3.org/2000/svg">
<path fill-rule="evenodd" clip-rule="evenodd" d="M56.4875 73.086C56.2193 73.361 56 85.3635 56 99.7582V125.929H59.6547H63.3095V120.294V114.659H71.9478C81.866 114.659 86.2619 113.604 91.5402 109.957C93.5327 108.579 96.0245 105.915 97.2772 103.824C99.3443 100.371 99.4915 99.6402 99.4915 92.8068C99.4915 85.8706 99.3751 85.3169 97.2759 82.2469C92.4488 75.1867 84.3008 72.5849 67.022 72.5849C61.496 72.5849 56.7551 72.8103 56.4875 73.086ZM109.881 73.0507C109.594 73.3452 109.359 85.3635 109.359 99.7582V125.929H113.023H116.688L116.495 99.4449L116.303 72.9606L113.353 72.7374C111.73 72.615 110.168 72.7555 109.881 73.0507ZM129.582 73.086C129.314 73.361 129.095 85.3635 129.095 99.7582V125.929H132.384H135.673V105.483C135.673 86.4927 135.759 85.1238 136.878 86.2733C137.54 86.954 144.869 96.0706 153.163 106.532L168.243 125.553L171.703 125.782L175.163 126.012L174.971 99.486L174.779 72.9606L171.684 72.7299L168.589 72.5L168.395 93.2253L168.2 113.951L151.81 93.2681C135.77 73.0267 135.363 72.5849 132.745 72.5849C131.273 72.5849 129.85 72.8103 129.582 73.086ZM188.058 73.086C187.79 73.361 187.571 85.3635 187.571 99.7582V125.929H191.206H194.842L195.044 114.643L195.246 103.356L207.671 114.608L220.098 125.861L225.945 125.87C230.686 125.879 231.574 125.708 230.636 124.966C225.366 120.797 202.936 100.73 203.09 100.322C203.197 100.036 209.207 94.0097 216.443 86.9307C223.679 79.8517 229.71 73.7277 229.843 73.3219C229.984 72.8967 228.321 72.5849 225.912 72.5849H221.736L208.308 85.8165L194.88 99.0473V85.8165V72.5849H191.713C189.97 72.5849 188.325 72.8103 188.058 73.086ZM232.889 72.9831C232.889 73.6871 255.761 125.516 256.518 126.529C258.667 129.402 259.889 127.309 271.662 100.579C278.076 86.0178 283.325 73.7615 283.325 73.3438C283.325 72.2491 277.066 72.4068 276.184 73.5241C275.052 74.9591 260.868 107.401 259.86 110.863C259.371 112.537 258.772 113.908 258.528 113.908C258.284 113.908 257.505 112.231 256.797 110.181C255.138 105.383 241.746 74.7592 240.765 73.5241C240.058 72.633 232.889 72.1409 232.889 72.9831ZM292.096 99.2156V125.929H295.76H299.424L299.232 99.4449L299.04 72.9606L295.568 72.7314L292.096 72.5023V99.2156ZM312.353 73.0507C312.066 73.3452 311.832 85.3635 311.832 99.7582V125.929H329.416H347L346.776 122.883L346.551 119.837L333.03 119.842L319.506 119.846L319.141 96.4034L318.775 72.9606L315.825 72.7374C314.203 72.615 312.64 72.7555 312.353 73.0507ZM355.689 99.2156V125.929H373.273H390.857L390.632 122.883L390.408 119.837L376.887 119.842L363.363 119.846L362.998 96.4034L362.632 72.9606L359.159 72.7314L355.689 72.5023V99.2156ZM414.969 78.7322C413.414 82.1696 407.989 94.0796 402.919 105.199C397.847 116.319 393.698 125.532 393.698 125.673C393.698 125.814 395.35 125.929 397.37 125.929H401.043L403.543 120.294L406.04 114.659H418.737H431.434L433.628 120.106L435.823 125.553L439.911 125.777L444 126L436.303 107.745C432.068 97.7047 427.05 85.7707 425.153 81.2251C422.095 73.9027 421.479 72.9335 419.749 72.7217C417.954 72.5023 417.571 72.9839 414.969 78.7322ZM84.9025 81.5106C88.8962 83.3747 91.6214 86.8864 92.2103 90.927C93.2198 97.8437 90.7426 103.059 85.0669 105.965C81.6314 107.725 80.4962 107.897 72.303 107.897H63.3095V93.9977V80.0982L72.629 80.1147C80.0862 80.1282 82.5393 80.4069 84.9025 81.5106ZM421.07 88.9247C421.798 91.3004 423.666 96.2607 425.224 99.9489C426.779 103.636 428.052 106.933 428.052 107.275C428.052 107.618 423.807 107.897 418.62 107.897H409.184L413.15 99.0691C415.332 94.2141 417.49 88.9736 417.949 87.4236C418.406 85.8744 418.998 84.6061 419.264 84.6061C419.528 84.6061 420.342 86.5498 421.07 88.9247Z" fill="#EA275E"/>
</svg>
