<svg width="500" height="200" viewBox="0 0 500 200" fill="none" xmlns="http://www.w3.org/2000/svg">
<g opacity="0.61">
<path d="M238.985 164.196L237.294 168.101H236.402L234.717 164.196H235.693L236.881 166.985L238.086 164.196H238.985Z" fill="white"/>
<path d="M241.946 166.801H239.675C239.759 167.175 240.077 167.404 240.534 167.404C240.852 167.404 241.081 167.309 241.287 167.114L241.75 167.616C241.471 167.934 241.053 168.101 240.512 168.101C239.474 168.101 238.799 167.449 238.799 166.556C238.799 165.658 239.485 165.011 240.4 165.011C241.281 165.011 241.962 165.602 241.962 166.567C241.962 166.634 241.951 166.729 241.946 166.801ZM239.664 166.294H241.142C241.081 165.914 240.796 165.669 240.406 165.669C240.01 165.669 239.725 165.909 239.664 166.294Z" fill="white"/>
<path d="M242.32 166.556C242.32 165.652 243.018 165.011 243.994 165.011C244.624 165.011 245.121 165.284 245.338 165.775L244.664 166.138C244.502 165.853 244.262 165.725 243.988 165.725C243.548 165.725 243.202 166.032 243.202 166.556C243.202 167.08 243.548 167.387 243.988 167.387C244.262 167.387 244.502 167.264 244.664 166.974L245.338 167.342C245.121 167.822 244.624 168.101 243.994 168.101C243.018 168.101 242.32 167.46 242.32 166.556Z" fill="white"/>
<path d="M247.82 167.911C247.642 168.04 247.379 168.101 247.111 168.101C246.403 168.101 245.99 167.739 245.99 167.024V165.792H245.527V165.122H245.99V164.391H246.861V165.122H247.608V165.792H246.861V167.013C246.861 167.27 247 167.41 247.234 167.41C247.363 167.41 247.491 167.371 247.586 167.298L247.82 167.911Z" fill="white"/>
<path d="M253.793 165.055V165.859C253.721 165.853 253.665 165.847 253.598 165.847C253.118 165.847 252.8 166.109 252.8 166.684V168.101H251.93V165.1H252.761V165.496C252.973 165.206 253.33 165.055 253.793 165.055Z" fill="white"/>
<path d="M254.043 167.649L254.35 166.968C254.679 167.208 255.17 167.375 255.638 167.375C256.174 167.375 256.391 167.197 256.391 166.957C256.391 166.226 254.121 166.729 254.121 165.278C254.121 164.614 254.656 164.062 255.766 164.062C256.257 164.062 256.76 164.179 257.122 164.408L256.843 165.094C256.48 164.888 256.107 164.787 255.761 164.787C255.225 164.787 255.019 164.988 255.019 165.234C255.019 165.953 257.289 165.457 257.289 166.89C257.289 167.543 256.748 168.101 255.632 168.101C255.014 168.101 254.389 167.917 254.043 167.649Z" fill="white"/>
<path d="M260.77 166.801H258.499C258.583 167.175 258.901 167.404 259.358 167.404C259.676 167.404 259.905 167.309 260.111 167.114L260.574 167.616C260.295 167.934 259.877 168.101 259.336 168.101C258.298 168.101 257.623 167.449 257.623 166.556C257.623 165.658 258.309 165.011 259.224 165.011C260.106 165.011 260.786 165.602 260.786 166.567C260.787 166.634 260.776 166.729 260.77 166.801ZM258.488 166.294H259.967C259.905 165.914 259.621 165.669 259.23 165.669C258.834 165.669 258.55 165.909 258.488 166.294Z" fill="white"/>
<path d="M264.289 166.801H262.019C262.102 167.175 262.42 167.404 262.878 167.404C263.196 167.404 263.424 167.309 263.631 167.114L264.094 167.616C263.815 167.934 263.396 168.101 262.855 168.101C261.818 168.101 261.143 167.449 261.143 166.556C261.143 165.658 261.829 165.011 262.744 165.011C263.625 165.011 264.306 165.602 264.306 166.567C264.306 166.634 264.295 166.729 264.289 166.801ZM262.007 166.294H263.486C263.424 165.914 263.14 165.669 262.75 165.669C262.353 165.669 262.069 165.909 262.007 166.294Z" fill="white"/>
<path d="M266.175 166.924L265.757 167.337V168.101H264.887V163.962H265.757V166.305L267.029 165.1H268.067L266.817 166.372L268.178 168.101H267.124L266.175 166.924Z" fill="white"/>
<path d="M252.008 168.509L251.138 167.64C251.006 167.794 250.849 167.926 250.672 168.03C250.644 168.051 250.615 168.071 250.586 168.09L251.506 169.011C251.645 169.149 251.869 169.149 252.008 169.011C252.146 168.872 252.146 168.648 252.008 168.509Z" fill="white"/>
<path d="M249.995 164.826C250.063 164.774 250.146 164.741 250.238 164.741C250.251 164.741 250.263 164.741 250.275 164.743C250.21 164.695 250.13 164.667 250.043 164.667C249.923 164.667 249.817 164.722 249.745 164.806C249.729 164.806 249.715 164.808 249.699 164.809C249.711 164.785 249.719 164.759 249.719 164.731C249.719 164.66 249.675 164.599 249.613 164.573C249.64 164.612 249.655 164.658 249.655 164.709C249.655 164.746 249.646 164.781 249.631 164.812C248.776 164.873 248.102 165.584 248.102 166.454C248.102 167.364 248.839 168.101 249.749 168.101C250.659 168.101 251.397 167.364 251.397 166.454C251.397 165.627 250.789 164.945 249.995 164.826ZM249.387 165.255C249.519 165.255 249.644 165.289 249.752 165.349C249.865 165.275 250.001 165.232 250.147 165.232C250.363 165.232 250.556 165.327 250.689 165.477C250.557 165.362 250.384 165.291 250.194 165.291C250.058 165.291 249.93 165.328 249.819 165.391C249.795 165.405 249.772 165.42 249.75 165.437C249.73 165.422 249.709 165.409 249.688 165.396C249.575 165.33 249.444 165.292 249.304 165.292C249.213 165.292 249.126 165.308 249.045 165.338C249.148 165.285 249.264 165.255 249.387 165.255ZM250.539 166.606C250.574 166.699 250.594 166.799 250.594 166.903C250.594 167.37 250.216 167.748 249.75 167.748C249.283 167.748 248.905 167.37 248.905 166.903C248.905 166.799 248.925 166.699 248.96 166.606C248.772 166.49 248.646 166.282 248.646 166.045C248.646 165.681 248.941 165.386 249.305 165.386C249.477 165.386 249.633 165.452 249.75 165.559C249.867 165.452 250.023 165.386 250.195 165.386C250.558 165.386 250.854 165.681 250.854 166.045C250.854 166.282 250.728 166.49 250.539 166.606Z" fill="white"/>
<path d="M250.507 165.987C250.507 166.138 250.384 166.26 250.233 166.26C250.082 166.26 249.959 166.138 249.959 165.987C249.959 165.835 250.082 165.713 250.233 165.713C250.264 165.713 250.293 165.718 250.32 165.727C250.311 165.746 250.306 165.767 250.306 165.789C250.306 165.872 250.374 165.939 250.457 165.939C250.472 165.939 250.487 165.937 250.501 165.932C250.505 165.95 250.507 165.968 250.507 165.987Z" fill="white"/>
<path d="M249.469 165.987C249.469 166.101 249.376 166.194 249.262 166.194C249.147 166.194 249.055 166.101 249.055 165.987C249.055 165.872 249.147 165.78 249.262 165.78C249.285 165.78 249.307 165.783 249.328 165.79C249.321 165.804 249.317 165.821 249.317 165.837C249.317 165.9 249.368 165.951 249.431 165.951C249.443 165.951 249.454 165.949 249.464 165.946C249.467 165.959 249.469 165.973 249.469 165.987Z" fill="white"/>
<path d="M248.031 166.22H247.844V166.408H248.031V166.22Z" fill="white"/>
<path d="M251.654 166.22H251.467V166.408H251.654V166.22Z" fill="white"/>
<path d="M251.582 166.297H251.54C251.54 165.31 250.737 164.506 249.749 164.506C248.762 164.506 247.959 165.31 247.959 166.297H247.916C247.916 165.807 248.107 165.347 248.453 165.001C248.799 164.654 249.259 164.464 249.749 164.464C250.239 164.464 250.699 164.654 251.045 165.001C251.392 165.347 251.582 165.807 251.582 166.297Z" fill="white"/>
<path d="M249.844 164.391H249.656V164.579H249.844V164.391Z" fill="white"/>
<path d="M251.034 164.464H248.465V164.506H251.034V164.464Z" fill="white"/>
<path d="M248.532 164.493C248.532 164.525 248.505 164.552 248.473 164.552C248.44 164.552 248.414 164.525 248.414 164.493C248.414 164.46 248.44 164.434 248.473 164.434C248.505 164.434 248.532 164.46 248.532 164.493Z" fill="white"/>
<path d="M251.092 164.493C251.092 164.525 251.066 164.552 251.033 164.552C251.001 164.552 250.975 164.525 250.975 164.493C250.975 164.46 251.001 164.434 251.033 164.434C251.066 164.434 251.092 164.46 251.092 164.493Z" fill="white"/>
<path d="M269.564 167.916C269.564 168.39 268.846 168.39 268.846 167.916C268.846 167.443 269.564 167.443 269.564 167.916Z" fill="white"/>
<path d="M223.169 165.831L223.708 167.682L224.272 165.831H224.945L224.087 168.305H223.379L223.124 167.577L222.905 166.754L222.685 167.577L222.431 168.305H221.722L220.859 165.831H221.538L222.102 167.682L222.635 165.831H223.169Z" fill="white"/>
<path d="M227.722 165.831L228.261 167.682L228.825 165.831H229.498L228.64 168.305H227.931L227.677 167.577L227.457 166.754L227.238 167.577L226.983 168.305H226.275L225.412 165.831H226.09L226.654 167.682L227.188 165.831H227.722Z" fill="white"/>
<path d="M232.273 165.831L232.811 167.682L233.375 165.831H234.049L233.19 168.305H232.482L232.228 167.577L232.008 166.754L231.789 167.577L231.534 168.305H230.826L229.963 165.831H230.641L231.205 167.682L231.739 165.831H232.273Z" fill="white"/>
<path d="M235.076 167.95C235.076 168.424 234.357 168.424 234.357 167.95C234.358 167.476 235.076 167.476 235.076 167.95Z" fill="white"/>
<path d="M272.104 167.916C271.82 168.196 271.521 168.305 271.157 168.305C270.444 168.305 269.85 167.877 269.85 167.004C269.85 166.131 270.443 165.701 271.157 165.701C271.506 165.701 271.775 165.801 272.045 166.066L271.661 166.47C271.516 166.34 271.336 166.275 271.167 166.275C270.758 166.275 270.459 166.575 270.459 167.004C270.459 167.473 270.778 167.722 271.157 167.722C271.352 167.722 271.546 167.667 271.696 167.518L272.104 167.916Z" fill="white"/>
<path d="M274.87 167.024C274.87 167.732 274.386 168.306 273.588 168.306C272.789 168.306 272.311 167.732 272.311 167.024C272.311 166.32 272.8 165.742 273.583 165.742C274.366 165.742 274.87 166.32 274.87 167.024ZM272.919 167.024C272.919 167.398 273.144 167.747 273.588 167.747C274.031 167.747 274.256 167.398 274.256 167.024C274.256 166.654 273.997 166.295 273.588 166.295C273.149 166.295 272.919 166.654 272.919 167.024Z" fill="white"/>
<path d="M276.925 168.306V166.989C276.925 166.664 276.756 166.37 276.421 166.37C276.093 166.37 275.898 166.664 275.898 166.989V168.306H275.289V165.841H275.853L275.898 166.14C276.027 165.891 276.312 165.801 276.546 165.801C276.841 165.801 277.135 165.921 277.275 166.26C277.495 165.911 277.779 165.811 278.098 165.811C278.796 165.811 279.141 166.24 279.141 166.978V168.305H278.532V166.978C278.532 166.654 278.397 166.379 278.068 166.379C277.739 166.379 277.534 166.664 277.534 166.988V168.305H276.925V168.306Z" fill="white"/>
</g>
<g opacity="0.61">
<path d="M279.181 155.115C279.179 154.743 278.889 154.47 278.515 154.464C278.234 154.46 278.262 154.501 278.262 154.201C278.261 153.867 278.26 153.534 278.263 153.2C278.264 153.085 278.229 152.99 278.153 152.903C277.441 152.092 276.731 151.279 276.019 150.468C275.982 150.426 275.935 150.394 275.893 150.357C274.004 150.357 272.115 150.357 270.226 150.357C269.985 150.446 269.88 150.621 269.88 150.876C269.883 152.016 269.881 153.155 269.881 154.294C269.881 154.463 269.881 154.473 269.714 154.462C269.259 154.431 268.949 154.761 268.955 155.219C268.969 156.276 268.959 157.333 268.959 158.39C268.96 158.87 269.223 159.132 269.704 159.134C269.881 159.135 269.881 159.135 269.881 159.316C269.881 159.991 269.881 160.666 269.881 161.34C269.882 161.703 270.058 161.879 270.419 161.879C272.855 161.879 275.291 161.879 277.727 161.879C278.082 161.879 278.261 161.701 278.261 161.348C278.262 160.662 278.261 159.976 278.262 159.291C278.262 159.135 278.262 159.135 278.42 159.134C278.502 159.133 278.584 159.137 278.666 159.116C278.968 159.042 279.179 158.799 279.18 158.487C279.185 157.364 279.186 156.239 279.181 155.115ZM270.532 150.817C272.154 150.817 273.777 150.817 275.399 150.817C275.565 150.817 275.567 150.819 275.567 150.988C275.567 151.67 275.567 152.352 275.567 153.034C275.568 153.28 275.643 153.356 275.89 153.356C276.47 153.356 277.051 153.356 277.632 153.356C277.771 153.356 277.778 153.362 277.778 153.503C277.779 153.772 277.779 154.042 277.778 154.312C277.778 154.457 277.771 154.463 277.625 154.464C276.441 154.464 275.257 154.464 274.073 154.464C272.893 154.464 271.712 154.464 270.532 154.464C270.365 154.464 270.364 154.463 270.364 154.293C270.364 153.191 270.364 152.09 270.364 150.988C270.364 150.818 270.366 150.817 270.532 150.817ZM277.61 161.28C276.43 161.28 275.249 161.28 274.069 161.28C272.892 161.28 271.715 161.28 270.538 161.28C270.364 161.28 270.364 161.279 270.364 161.104C270.364 160.497 270.364 159.89 270.364 159.283C270.364 159.142 270.371 159.135 270.51 159.135C272.882 159.134 275.254 159.134 277.626 159.135C277.771 159.135 277.778 159.141 277.778 159.288C277.778 159.895 277.778 160.502 277.778 161.109C277.778 161.278 277.777 161.28 277.61 161.28Z" fill="white"/>
<path d="M274.069 150.784H273.535V151.104H274.069V150.784Z" fill="white"/>
<path d="M273.536 151.104H273.002V151.425H273.536V151.104Z" fill="white"/>
<path d="M274.069 151.425H273.535V151.745H274.069V151.425Z" fill="white"/>
<path d="M273.536 151.745H273.002V152.066H273.536V151.745Z" fill="white"/>
<path d="M274.069 152.066H273.535V152.386H274.069V152.066Z" fill="white"/>
<path d="M273.536 152.386H273.002V152.707H273.536V152.386Z" fill="white"/>
<path d="M274.069 152.707H273.535V153.027H274.069V152.707Z" fill="white"/>
<path d="M273.536 153.027H273.002V153.348H273.536V153.027Z" fill="white"/>
<path d="M274.069 153.348H273.535V153.668H274.069V153.348Z" fill="white"/>
<path d="M273.536 153.668H273.002V153.989H273.536V153.668Z" fill="white"/>
<path d="M274.069 153.989H273.535V154.309H274.069V153.989Z" fill="white"/>
<path d="M273.536 154.309H273.002V154.629H273.536V154.309Z" fill="white"/>
<path d="M231.042 155.115C231.04 154.743 230.751 154.47 230.377 154.464C230.096 154.46 230.124 154.501 230.123 154.201C230.122 153.867 230.121 153.534 230.124 153.2C230.125 153.085 230.09 152.99 230.014 152.903C229.302 152.092 228.592 151.279 227.88 150.468C227.844 150.426 227.797 150.394 227.754 150.357C225.865 150.357 223.977 150.357 222.088 150.357C221.846 150.446 221.741 150.621 221.742 150.876C221.745 152.016 221.743 153.155 221.743 154.294C221.743 154.463 221.742 154.473 221.576 154.462C221.12 154.431 220.811 154.761 220.816 155.219C220.83 156.276 220.82 157.333 220.821 158.39C220.821 158.87 221.084 159.132 221.566 159.134C221.742 159.135 221.742 159.135 221.742 159.316C221.742 159.991 221.742 160.666 221.743 161.34C221.743 161.703 221.919 161.879 222.28 161.879C224.716 161.879 227.152 161.879 229.588 161.879C229.943 161.879 230.122 161.701 230.123 161.348C230.123 160.662 230.123 159.976 230.123 159.291C230.123 159.135 230.123 159.135 230.281 159.134C230.363 159.133 230.445 159.137 230.527 159.116C230.83 159.042 231.041 158.799 231.042 158.487C231.047 157.364 231.048 156.239 231.042 155.115ZM222.393 150.817C224.016 150.817 225.638 150.817 227.26 150.817C227.427 150.817 227.429 150.819 227.429 150.988C227.429 151.67 227.428 152.352 227.429 153.034C227.429 153.28 227.505 153.356 227.751 153.356C228.332 153.356 228.913 153.356 229.494 153.356C229.633 153.356 229.639 153.362 229.64 153.503C229.641 153.772 229.64 154.042 229.64 154.312C229.639 154.457 229.632 154.463 229.487 154.464C228.302 154.464 227.118 154.464 225.935 154.464C224.755 154.464 223.574 154.464 222.394 154.464C222.227 154.464 222.226 154.463 222.226 154.293C222.226 153.191 222.226 152.09 222.226 150.988C222.226 150.818 222.227 150.817 222.393 150.817ZM229.472 161.28C228.292 161.28 227.111 161.28 225.93 161.28C224.754 161.28 223.577 161.28 222.4 161.28C222.226 161.28 222.226 161.279 222.226 161.104C222.225 160.497 222.225 159.89 222.226 159.283C222.226 159.142 222.233 159.135 222.371 159.135C224.743 159.134 227.116 159.134 229.488 159.135C229.633 159.135 229.639 159.141 229.639 159.288C229.64 159.895 229.64 160.502 229.639 161.109C229.64 161.278 229.638 161.28 229.472 161.28Z" fill="white"/>
<path d="M222.574 157.963V155.563H223.419C223.533 155.563 223.64 155.581 223.739 155.618C223.839 155.655 223.925 155.707 223.999 155.774C224.073 155.841 224.131 155.921 224.173 156.014C224.216 156.107 224.237 156.209 224.237 156.321C224.237 156.435 224.216 156.538 224.173 156.631C224.131 156.723 224.073 156.803 223.999 156.871C223.925 156.938 223.839 156.99 223.739 157.027C223.64 157.063 223.533 157.082 223.419 157.082H223.027V157.964H222.574V157.963ZM223.426 156.652C223.544 156.652 223.634 156.619 223.694 156.552C223.754 156.485 223.784 156.408 223.784 156.32C223.784 156.278 223.777 156.236 223.763 156.196C223.748 156.156 223.726 156.121 223.695 156.091C223.665 156.061 223.628 156.037 223.583 156.019C223.538 156.001 223.486 155.992 223.425 155.992H223.027V156.652H223.426Z" fill="white"/>
<path d="M224.559 155.562H225.085L226.051 157.172H226.077L226.051 156.709V155.562H226.5V157.963H226.024L225.005 156.263H224.978L225.005 156.726V157.963H224.559V155.562Z" fill="white"/>
<path d="M228.089 156.646H229.266C229.273 156.673 229.279 156.705 229.283 156.743C229.287 156.781 229.29 156.819 229.29 156.857C229.29 157.011 229.266 157.156 229.22 157.293C229.173 157.429 229.099 157.551 228.998 157.658C228.891 157.772 228.762 157.861 228.613 157.923C228.463 157.986 228.292 158.017 228.1 158.017C227.925 158.017 227.761 157.986 227.607 157.923C227.452 157.86 227.318 157.773 227.204 157.662C227.09 157.55 227 157.417 226.933 157.264C226.865 157.111 226.832 156.944 226.832 156.763C226.832 156.582 226.865 156.415 226.933 156.262C227 156.108 227.09 155.976 227.204 155.864C227.318 155.753 227.452 155.665 227.607 155.603C227.761 155.54 227.925 155.509 228.1 155.509C228.294 155.509 228.468 155.542 228.621 155.61C228.774 155.677 228.905 155.769 229.015 155.888L228.703 156.193C228.625 156.11 228.538 156.047 228.442 156.004C228.346 155.96 228.23 155.938 228.096 155.938C227.987 155.938 227.883 155.958 227.784 155.997C227.686 156.036 227.6 156.091 227.526 156.163C227.452 156.234 227.394 156.321 227.35 156.423C227.307 156.525 227.285 156.638 227.285 156.763C227.285 156.888 227.307 157.002 227.35 157.103C227.394 157.205 227.453 157.292 227.528 157.363C227.602 157.435 227.689 157.49 227.788 157.529C227.886 157.569 227.991 157.588 228.103 157.588C228.23 157.588 228.338 157.569 228.426 157.533C228.514 157.496 228.59 157.448 228.652 157.39C228.697 157.35 228.736 157.299 228.768 157.237C228.8 157.176 228.826 157.107 228.844 157.031H228.089L228.089 156.646Z" fill="white"/>
<path d="M242.103 155.115C242.101 154.743 241.811 154.47 241.437 154.464C241.156 154.46 241.184 154.501 241.184 154.201C241.183 153.867 241.182 153.534 241.185 153.2C241.186 153.085 241.151 152.99 241.075 152.903C240.363 152.092 239.652 151.279 238.941 150.468C238.904 150.426 238.857 150.394 238.815 150.357C236.926 150.357 235.037 150.357 233.148 150.357C232.907 150.446 232.801 150.621 232.802 150.876C232.805 152.016 232.803 153.155 232.803 154.294C232.803 154.463 232.802 154.473 232.636 154.462C232.181 154.431 231.871 154.761 231.877 155.219C231.89 156.276 231.881 157.333 231.881 158.39C231.882 158.87 232.145 159.132 232.626 159.134C232.803 159.135 232.803 159.135 232.803 159.316C232.803 159.991 232.803 160.666 232.803 161.34C232.804 161.703 232.98 161.879 233.341 161.879C235.777 161.879 238.213 161.879 240.649 161.879C241.004 161.879 241.182 161.701 241.183 161.348C241.184 160.662 241.183 159.976 241.183 159.291C241.183 159.135 241.184 159.135 241.341 159.134C241.424 159.133 241.506 159.137 241.587 159.116C241.89 159.042 242.101 158.799 242.102 158.487C242.107 157.364 242.108 156.239 242.103 155.115ZM233.454 150.817C235.076 150.817 236.698 150.817 238.321 150.817C238.487 150.817 238.489 150.819 238.489 150.988C238.489 151.67 238.489 152.352 238.489 153.034C238.49 153.28 238.565 153.356 238.812 153.356C239.392 153.356 239.973 153.356 240.554 153.356C240.693 153.356 240.699 153.362 240.7 153.503C240.701 153.772 240.701 154.042 240.7 154.312C240.7 154.457 240.693 154.463 240.547 154.464C239.363 154.464 238.179 154.464 236.995 154.464C235.815 154.464 234.634 154.464 233.454 154.464C233.287 154.464 233.286 154.463 233.286 154.293C233.286 153.191 233.286 152.09 233.286 150.988C233.286 150.818 233.288 150.817 233.454 150.817ZM240.533 161.28C239.352 161.28 238.172 161.28 236.991 161.28C235.814 161.28 234.637 161.28 233.461 161.28C233.287 161.28 233.286 161.279 233.286 161.104C233.286 160.497 233.286 159.89 233.286 159.283C233.286 159.142 233.293 159.135 233.432 159.135C235.804 159.134 238.176 159.134 240.548 159.135C240.694 159.135 240.7 159.141 240.7 159.288C240.701 159.895 240.7 160.502 240.7 161.109C240.7 161.278 240.699 161.28 240.533 161.28Z" fill="white"/>
<path d="M236.355 155.562H236.872L237.774 157.963H237.274L237.076 157.389H236.151L235.953 157.963H235.453L236.355 155.562ZM236.928 156.974L236.714 156.374L236.627 156.082H236.6L236.513 156.374L236.298 156.974H236.928Z" fill="white"/>
<path d="M238.247 156.099C238.209 156.099 238.172 156.092 238.138 156.077C238.103 156.062 238.073 156.042 238.047 156.017C238.021 155.991 238.001 155.961 237.987 155.928C237.972 155.894 237.965 155.857 237.965 155.817C237.965 155.777 237.972 155.74 237.987 155.706C238.001 155.673 238.021 155.643 238.047 155.618C238.072 155.592 238.103 155.572 238.138 155.558C238.172 155.543 238.208 155.536 238.247 155.536C238.325 155.536 238.392 155.563 238.448 155.618C238.504 155.673 238.532 155.739 238.532 155.817C238.532 155.895 238.504 155.962 238.448 156.017C238.392 156.072 238.325 156.099 238.247 156.099ZM238.029 157.963V156.321H238.468V157.963H238.029Z" fill="white"/>
<path d="M253.359 155.115C253.357 154.743 253.067 154.47 252.693 154.464C252.412 154.46 252.44 154.501 252.44 154.201C252.439 153.867 252.437 153.534 252.44 153.2C252.441 153.085 252.406 152.99 252.33 152.903C251.618 152.092 250.908 151.279 250.197 150.468C250.16 150.426 250.113 150.394 250.071 150.357C248.182 150.357 246.293 150.357 244.404 150.357C244.163 150.446 244.057 150.621 244.058 150.876C244.061 152.016 244.059 153.155 244.059 154.294C244.059 154.463 244.058 154.473 243.892 154.462C243.437 154.431 243.127 154.761 243.133 155.219C243.146 156.276 243.137 157.333 243.137 158.39C243.137 158.87 243.401 159.132 243.882 159.134C244.059 159.135 244.059 159.135 244.059 159.316C244.059 159.991 244.059 160.666 244.059 161.34C244.059 161.703 244.236 161.879 244.597 161.879C247.033 161.879 249.469 161.879 251.905 161.879C252.26 161.879 252.438 161.701 252.439 161.348C252.44 160.662 252.439 159.976 252.439 159.291C252.439 159.135 252.44 159.135 252.597 159.134C252.68 159.133 252.762 159.137 252.843 159.116C253.146 159.042 253.357 158.799 253.358 158.487C253.363 157.364 253.364 156.239 253.359 155.115ZM244.709 150.817C246.332 150.817 247.954 150.817 249.576 150.817C249.743 150.817 249.745 150.819 249.745 150.988C249.745 151.67 249.745 152.352 249.745 153.034C249.746 153.28 249.821 153.356 250.067 153.356C250.648 153.356 251.229 153.356 251.81 153.356C251.949 153.356 251.955 153.362 251.956 153.503C251.957 153.772 251.956 154.042 251.956 154.312C251.956 154.457 251.949 154.463 251.803 154.464C250.619 154.464 249.435 154.464 248.251 154.464C247.071 154.464 245.89 154.464 244.71 154.464C244.543 154.464 244.542 154.463 244.542 154.293C244.542 153.191 244.542 152.09 244.542 150.988C244.542 150.818 244.543 150.817 244.709 150.817ZM251.788 161.28C250.608 161.28 249.427 161.28 248.246 161.28C247.07 161.28 245.893 161.28 244.716 161.28C244.542 161.28 244.542 161.279 244.542 161.104C244.541 160.497 244.541 159.89 244.542 159.283C244.542 159.142 244.549 159.135 244.687 159.135C247.059 159.134 249.432 159.134 251.804 159.135C251.949 159.135 251.956 159.141 251.956 159.288C251.956 159.895 251.956 160.502 251.956 161.109C251.956 161.278 251.955 161.28 251.788 161.28Z" fill="white"/>
<path d="M245.854 158.017C245.752 158.017 245.653 158.002 245.559 157.973C245.465 157.944 245.379 157.901 245.301 157.843C245.223 157.784 245.155 157.713 245.096 157.63C245.038 157.546 244.992 157.448 244.959 157.336L245.385 157.169C245.416 157.29 245.471 157.39 245.549 157.469C245.627 157.548 245.73 157.588 245.858 157.588C245.904 157.588 245.95 157.582 245.993 157.57C246.037 157.557 246.076 157.539 246.111 157.516C246.145 157.493 246.173 157.463 246.193 157.427C246.213 157.391 246.223 157.35 246.223 157.303C246.223 157.259 246.215 157.218 246.2 157.183C246.184 157.147 246.158 157.114 246.121 157.082C246.084 157.051 246.036 157.021 245.976 156.991C245.917 156.962 245.844 156.932 245.757 156.901L245.61 156.847C245.545 156.825 245.479 156.795 245.413 156.757C245.347 156.719 245.288 156.673 245.234 156.619C245.18 156.566 245.136 156.503 245.102 156.43C245.067 156.357 245.05 156.275 245.05 156.184C245.05 156.09 245.068 156.002 245.105 155.92C245.142 155.839 245.194 155.767 245.262 155.706C245.33 155.644 245.412 155.596 245.507 155.562C245.602 155.527 245.708 155.51 245.824 155.51C245.945 155.51 246.049 155.526 246.137 155.558C246.226 155.591 246.301 155.632 246.362 155.682C246.423 155.732 246.473 155.788 246.511 155.848C246.549 155.909 246.577 155.966 246.595 156.019L246.196 156.187C246.174 156.12 246.133 156.06 246.074 156.006C246.015 155.952 245.934 155.925 245.831 155.925C245.732 155.925 245.651 155.948 245.586 155.994C245.521 156.04 245.489 156.1 245.489 156.173C245.489 156.245 245.52 156.306 245.583 156.356C245.645 156.406 245.745 156.455 245.881 156.502L246.032 156.552C246.128 156.586 246.216 156.624 246.296 156.668C246.375 156.711 246.443 156.763 246.5 156.824C246.557 156.884 246.601 156.953 246.631 157.03C246.661 157.107 246.676 157.196 246.676 157.297C246.676 157.422 246.651 157.53 246.601 157.62C246.551 157.711 246.486 157.785 246.408 157.843C246.33 157.901 246.242 157.945 246.143 157.974C246.044 158.002 245.948 158.017 245.854 158.017Z" fill="white"/>
<path d="M246.812 155.562H247.302L247.798 157.008L247.886 157.316H247.912L248.006 157.008L248.523 155.562H249.012L248.137 157.963H247.661L246.812 155.562Z" fill="white"/>
<path d="M250.334 156.646H251.511C251.517 156.673 251.523 156.705 251.527 156.743C251.532 156.781 251.534 156.819 251.534 156.857C251.534 157.011 251.511 157.156 251.464 157.293C251.417 157.429 251.343 157.551 251.242 157.658C251.135 157.772 251.007 157.861 250.857 157.923C250.707 157.986 250.536 158.017 250.344 158.017C250.169 158.017 250.005 157.986 249.851 157.923C249.697 157.86 249.563 157.773 249.449 157.662C249.335 157.55 249.244 157.417 249.177 157.264C249.11 157.111 249.076 156.944 249.076 156.763C249.076 156.582 249.11 156.415 249.177 156.262C249.244 156.108 249.334 155.976 249.449 155.864C249.563 155.753 249.697 155.665 249.851 155.603C250.005 155.54 250.169 155.509 250.344 155.509C250.538 155.509 250.712 155.542 250.865 155.61C251.018 155.677 251.15 155.769 251.259 155.888L250.947 156.193C250.869 156.11 250.782 156.047 250.686 156.004C250.589 155.96 250.475 155.938 250.34 155.938C250.231 155.938 250.127 155.958 250.028 155.997C249.93 156.036 249.844 156.091 249.77 156.163C249.696 156.234 249.638 156.321 249.594 156.423C249.551 156.525 249.529 156.638 249.529 156.763C249.529 156.888 249.551 157.002 249.594 157.103C249.638 157.205 249.697 157.292 249.772 157.363C249.847 157.435 249.933 157.49 250.032 157.529C250.13 157.569 250.235 157.588 250.347 157.588C250.474 157.588 250.582 157.569 250.67 157.533C250.759 157.496 250.834 157.448 250.897 157.39C250.942 157.35 250.98 157.299 251.012 157.237C251.045 157.176 251.07 157.107 251.088 157.031H250.333V156.646H250.334Z" fill="white"/>
<path d="M264.38 155.115C264.378 154.743 264.088 154.47 263.715 154.464C263.434 154.46 263.462 154.501 263.461 154.201C263.46 153.867 263.459 153.534 263.462 153.2C263.463 153.085 263.428 152.99 263.352 152.903C262.64 152.092 261.93 151.279 261.218 150.468C261.182 150.426 261.135 150.394 261.092 150.357C259.203 150.357 257.314 150.357 255.425 150.357C255.184 150.446 255.079 150.621 255.079 150.876C255.082 152.016 255.081 153.155 255.081 154.294C255.081 154.463 255.08 154.473 254.913 154.462C254.458 154.431 254.149 154.761 254.154 155.219C254.168 156.276 254.158 157.333 254.159 158.39C254.159 158.87 254.422 159.132 254.903 159.134C255.08 159.135 255.08 159.135 255.08 159.316C255.08 159.991 255.08 160.666 255.081 161.34C255.081 161.703 255.257 161.879 255.618 161.879C258.054 161.879 260.49 161.879 262.926 161.879C263.281 161.879 263.46 161.701 263.46 161.348C263.461 160.662 263.46 159.976 263.461 159.291C263.461 159.135 263.461 159.135 263.619 159.134C263.701 159.133 263.783 159.137 263.865 159.116C264.168 159.042 264.379 158.799 264.38 158.487C264.385 157.364 264.385 156.239 264.38 155.115ZM255.731 150.817C257.354 150.817 258.976 150.817 260.598 150.817C260.765 150.817 260.767 150.819 260.767 150.988C260.767 151.67 260.766 152.352 260.767 153.034C260.767 153.28 260.843 153.356 261.089 153.356C261.67 153.356 262.251 153.356 262.831 153.356C262.971 153.356 262.977 153.362 262.978 153.503C262.979 153.772 262.978 154.042 262.978 154.312C262.977 154.457 262.97 154.463 262.824 154.464C261.64 154.464 260.456 154.464 259.273 154.464C258.092 154.464 256.912 154.464 255.732 154.464C255.565 154.464 255.564 154.463 255.564 154.293C255.564 153.191 255.564 152.09 255.564 150.988C255.564 150.818 255.565 150.817 255.731 150.817ZM262.81 161.28C261.629 161.28 260.449 161.28 259.268 161.28C258.091 161.28 256.915 161.28 255.738 161.28C255.564 161.28 255.563 161.279 255.563 161.104C255.563 160.497 255.563 159.89 255.564 159.283C255.564 159.142 255.571 159.135 255.709 159.135C258.081 159.134 260.454 159.134 262.826 159.135C262.971 159.135 262.977 159.141 262.977 159.288C262.978 159.895 262.978 160.502 262.977 161.109C262.978 161.278 262.976 161.28 262.81 161.28Z" fill="white"/>
<path d="M256.982 155.992V156.548H257.944V156.977H256.982V157.534H258.051V157.963H256.529V155.563H258.051V155.992L256.982 155.992Z" fill="white"/>
<path d="M258.467 157.963V155.563H259.312C259.426 155.563 259.532 155.581 259.632 155.618C259.731 155.655 259.818 155.707 259.892 155.774C259.966 155.841 260.024 155.921 260.066 156.014C260.109 156.106 260.13 156.209 260.13 156.32C260.13 156.434 260.108 156.538 260.066 156.631C260.024 156.723 259.966 156.803 259.892 156.87C259.818 156.938 259.731 156.99 259.632 157.026C259.532 157.063 259.426 157.082 259.312 157.082H258.919V157.964H258.467V157.963ZM259.318 156.652C259.437 156.652 259.526 156.618 259.586 156.552C259.647 156.485 259.677 156.407 259.677 156.32C259.677 156.278 259.67 156.236 259.655 156.196C259.641 156.156 259.618 156.121 259.588 156.091C259.558 156.061 259.52 156.037 259.475 156.019C259.431 156.001 259.378 155.992 259.318 155.992H258.919V156.652H259.318Z" fill="white"/>
<path d="M261.186 158.017C261.084 158.017 260.985 158.002 260.891 157.973C260.797 157.945 260.711 157.901 260.633 157.843C260.555 157.785 260.486 157.713 260.428 157.63C260.37 157.546 260.324 157.448 260.291 157.337L260.717 157.169C260.748 157.29 260.803 157.39 260.881 157.469C260.96 157.548 261.062 157.588 261.19 157.588C261.237 157.588 261.282 157.582 261.326 157.57C261.369 157.558 261.409 157.54 261.443 157.516C261.478 157.493 261.505 157.463 261.525 157.427C261.545 157.392 261.556 157.35 261.556 157.303C261.556 157.259 261.548 157.219 261.532 157.183C261.517 157.147 261.49 157.114 261.454 157.082C261.417 157.051 261.369 157.021 261.309 156.991C261.25 156.963 261.177 156.932 261.09 156.901L260.942 156.847C260.877 156.825 260.812 156.795 260.746 156.757C260.68 156.719 260.62 156.673 260.567 156.619C260.513 156.566 260.469 156.503 260.434 156.43C260.4 156.357 260.382 156.275 260.382 156.184C260.382 156.09 260.401 156.002 260.438 155.92C260.474 155.839 260.527 155.768 260.595 155.706C260.663 155.644 260.745 155.596 260.84 155.562C260.935 155.527 261.04 155.51 261.157 155.51C261.277 155.51 261.382 155.526 261.47 155.558C261.558 155.591 261.633 155.632 261.695 155.682C261.756 155.733 261.806 155.788 261.844 155.848C261.882 155.909 261.91 155.966 261.928 156.02L261.529 156.187C261.506 156.12 261.466 156.06 261.406 156.006C261.347 155.952 261.266 155.925 261.163 155.925C261.065 155.925 260.984 155.948 260.919 155.994C260.854 156.04 260.821 156.1 260.821 156.173C260.821 156.245 260.853 156.306 260.915 156.356C260.978 156.406 261.077 156.455 261.214 156.502L261.365 156.552C261.461 156.586 261.549 156.624 261.628 156.668C261.707 156.711 261.775 156.763 261.833 156.824C261.889 156.884 261.933 156.953 261.963 157.03C261.993 157.107 262.009 157.196 262.009 157.297C262.009 157.422 261.983 157.53 261.933 157.62C261.883 157.711 261.819 157.785 261.74 157.843C261.662 157.901 261.574 157.945 261.475 157.974C261.376 158.002 261.28 158.017 261.186 158.017Z" fill="white"/>
<path d="M271.705 157.507L272.922 155.992H271.759V155.562H273.449V156.018L272.245 157.534H273.462V157.963H271.705L271.705 157.507Z" fill="white"/>
<path d="M273.838 155.562H274.291V157.963H273.838V155.562Z" fill="white"/>
<path d="M274.773 157.963V155.563H275.618C275.732 155.563 275.839 155.581 275.938 155.618C276.038 155.655 276.124 155.707 276.198 155.774C276.272 155.841 276.33 155.921 276.373 156.014C276.415 156.107 276.436 156.209 276.436 156.321C276.436 156.435 276.415 156.538 276.373 156.631C276.33 156.723 276.272 156.803 276.198 156.871C276.124 156.938 276.038 156.99 275.938 157.027C275.839 157.063 275.732 157.082 275.618 157.082H275.226V157.964H274.773V157.963ZM275.625 156.652C275.744 156.652 275.833 156.619 275.893 156.552C275.954 156.485 275.984 156.408 275.984 156.32C275.984 156.278 275.977 156.236 275.962 156.196C275.947 156.156 275.925 156.121 275.895 156.091C275.865 156.061 275.827 156.037 275.782 156.019C275.738 156.001 275.685 155.992 275.625 155.992H275.226V156.652H275.625Z" fill="white"/>
</g>
<g opacity="0.61">
<path d="M265.24 155.714H267.997V156.396H265.24V155.714ZM265.24 156.889H267.997V157.571H265.24V156.889Z" fill="white"/>
</g>
<g opacity="0.61">
<path d="M221.654 169.579H222.143C222.527 169.579 222.785 169.826 222.785 170.179C222.785 170.532 222.527 170.779 222.143 170.779H221.654V169.579ZM222.136 170.669C222.455 170.669 222.66 170.467 222.66 170.179C222.66 169.891 222.454 169.689 222.136 169.689H221.781V170.669H222.136Z" fill="white"/>
<path d="M224.203 170.179C224.203 169.829 224.47 169.569 224.834 169.569C225.194 169.569 225.463 169.827 225.463 170.179C225.463 170.53 225.194 170.789 224.834 170.789C224.471 170.789 224.203 170.529 224.203 170.179ZM225.336 170.179C225.336 169.892 225.122 169.682 224.834 169.682C224.544 169.682 224.328 169.892 224.328 170.179C224.328 170.465 224.544 170.676 224.834 170.676C225.122 170.676 225.336 170.465 225.336 170.179Z" fill="white"/>
<path d="M228.598 169.579L228.193 170.779H228.059L227.708 169.756L227.355 170.779H227.223L226.818 169.579H226.949L227.295 170.611L227.653 169.579H227.771L228.124 170.616L228.476 169.579H228.598Z" fill="white"/>
<path d="M231.071 169.579V170.779H230.966L230.195 169.805V170.779H230.068V169.579H230.173L230.946 170.553V169.579H231.071Z" fill="white"/>
<path d="M232.701 169.579H232.828V170.669H233.5V170.779H232.701V169.579Z" fill="white"/>
<path d="M234.818 170.179C234.818 169.829 235.086 169.569 235.449 169.569C235.809 169.569 236.078 169.827 236.078 170.179C236.078 170.53 235.809 170.789 235.449 170.789C235.086 170.789 234.818 170.529 234.818 170.179ZM235.951 170.179C235.951 169.892 235.737 169.682 235.449 169.682C235.159 169.682 234.944 169.892 234.944 170.179C234.944 170.465 235.159 170.676 235.449 170.676C235.737 170.676 235.951 170.465 235.951 170.179Z" fill="white"/>
<path d="M238.337 170.458H237.669L237.525 170.778H237.393L237.941 169.579H238.066L238.615 170.778H238.481L238.337 170.458ZM238.291 170.355L238.003 169.711L237.715 170.355H238.291Z" fill="white"/>
<path d="M240.053 169.579H240.541C240.925 169.579 241.184 169.826 241.184 170.179C241.184 170.532 240.925 170.779 240.541 170.779H240.053V169.579ZM240.534 170.669C240.853 170.669 241.059 170.467 241.059 170.179C241.059 169.891 240.853 169.689 240.534 169.689H240.18V170.669H240.534Z" fill="white"/>
<path d="M245.15 170.458H244.481L244.337 170.778H244.205L244.753 169.579H244.879L245.427 170.778H245.293L245.15 170.458ZM245.103 170.355L244.816 169.711L244.528 170.355H245.103Z" fill="white"/>
<path d="M246.865 169.579H246.992V170.669H247.664V170.779H246.865V169.579Z" fill="white"/>
<path d="M249.113 169.579H249.24V170.669H249.912V170.779H249.113V169.579Z" fill="white"/>
<path d="M253.178 169.689V170.16H253.798V170.27H253.178V170.779H253.051V169.579H253.873V169.689L253.178 169.689Z" fill="white"/>
<path d="M255.375 169.579H255.502V170.779H255.375V169.579Z" fill="white"/>
<path d="M257.131 169.579H257.258V170.669H257.929V170.779H257.131V169.579Z" fill="white"/>
<path d="M260.227 170.669V170.779H259.379V169.579H260.202V169.689H259.506V170.116H260.126V170.223H259.506V170.669H260.227Z" fill="white"/>
<path d="M263.58 169.689V170.16H264.2V170.27H263.58V170.779H263.453V169.579H264.276V169.689L263.58 169.689Z" fill="white"/>
<path d="M265.656 170.179C265.656 169.829 265.923 169.569 266.287 169.569C266.647 169.569 266.916 169.827 266.916 170.179C266.916 170.53 266.647 170.789 266.287 170.789C265.923 170.789 265.656 170.529 265.656 170.179ZM266.789 170.179C266.789 169.892 266.575 169.682 266.287 169.682C265.997 169.682 265.781 169.892 265.781 170.179C265.781 170.465 265.997 170.676 266.287 170.676C266.575 170.676 266.789 170.465 266.789 170.179Z" fill="white"/>
<path d="M269.259 170.779L268.985 170.393C268.954 170.396 268.923 170.398 268.888 170.398H268.566V170.779H268.439V169.579H268.888C269.194 169.579 269.379 169.733 269.379 169.99C269.379 170.179 269.279 170.311 269.105 170.367L269.398 170.779H269.259V170.779ZM269.252 169.99C269.252 169.798 269.125 169.689 268.885 169.689H268.566V170.29H268.885C269.125 170.29 269.252 170.179 269.252 169.99Z" fill="white"/>
<path d="M272.164 169.579V170.779H272.042V169.819L271.571 170.626H271.511L271.04 169.824V170.778H270.918V169.579H271.023L271.544 170.468L272.059 169.579L272.164 169.579Z" fill="white"/>
<path d="M274.546 170.458H273.877L273.733 170.778H273.602L274.15 169.579H274.275L274.823 170.778H274.69L274.546 170.458ZM274.5 170.355L274.212 169.711L273.924 170.355H274.5Z" fill="white"/>
<path d="M276.435 169.689H276.014V169.579H276.984V169.689H276.562V170.779H276.436V169.689H276.435Z" fill="white"/>
<path d="M278.291 170.633L278.341 170.536C278.427 170.62 278.579 170.681 278.737 170.681C278.961 170.681 279.059 170.587 279.059 170.469C279.059 170.14 278.32 170.342 278.32 169.898C278.32 169.722 278.457 169.569 278.763 169.569C278.898 169.569 279.039 169.608 279.135 169.675L279.092 169.777C278.989 169.71 278.869 169.677 278.763 169.677C278.543 169.677 278.445 169.775 278.445 169.895C278.445 170.224 279.184 170.025 279.184 170.462C279.184 170.639 279.044 170.79 278.737 170.79C278.557 170.789 278.38 170.726 278.291 170.633Z" fill="white"/>
</g>
<path fill-rule="evenodd" clip-rule="evenodd" d="M181.6 31.6H318.4V168.4H181.6V31.6Z" fill="#ED0882"/>
<path fill-rule="evenodd" clip-rule="evenodd" d="M244.324 55.754V106.32C244.324 113.736 242.018 122.96 230.706 122.96C220.108 122.96 217.183 114.023 217.183 106.799V55.754H192.562C192.558 56.0045 192.553 56.255 192.553 56.5067V106.062C192.553 127.073 202.268 144.263 230.754 144.263C258.305 144.263 268.955 127.073 268.955 106.062V56.5067C268.955 56.255 268.95 56.0045 268.945 55.754H244.324Z" fill="white"/>
<path fill-rule="evenodd" clip-rule="evenodd" d="M306.374 80.9112L301.298 98.286C295.001 95.2822 286.751 92.7775 280.393 92.7775C278.56 92.7775 275.027 92.8249 275.027 95.3846C275.027 98.397 278.294 98.891 280.797 99.7537C286.536 101.178 296.303 104.012 301.407 108.018C306.248 111.741 307.463 116.428 307.463 122.689C307.463 138.425 295.773 144.361 280.247 144.361C269.669 144.361 260.836 141.787 253.064 139.012L257.985 121.917C264.693 124.337 272.953 127.603 280.87 127.603C284.182 127.603 286.816 126.862 286.816 124.703C286.816 122.018 284.163 121.453 280.21 120.456C274.331 118.604 268.244 117.144 262.609 113.889C255.672 109.595 253.705 103.216 254.341 95.7202C255.62 80.6349 267.737 75.9308 281.065 75.966C289.879 75.9894 298.989 77.915 306.374 80.9112Z" fill="white"/>
<path fill-rule="evenodd" clip-rule="evenodd" d="M303.101 65.0482H257.965V76.6318H303.101V65.0482Z" fill="black"/>
<path fill-rule="evenodd" clip-rule="evenodd" d="M276.268 67.7632H280.315V69.1753H277.747V69.9344H279.314V71.3461H277.747V72.2624H280.411V73.6742H276.268V67.7632Z" fill="white"/>
<path fill-rule="evenodd" clip-rule="evenodd" d="M272.499 69.9344H270.932V69.1753H273.501V67.7632H269.453V73.6742H273.596V72.2624H270.932V71.3461H272.499V69.9344Z" fill="white"/>
<path fill-rule="evenodd" clip-rule="evenodd" d="M300.744 67.7632H298.897L297.892 70.0256L296.888 67.7632H295.041L297.151 71.5711V73.6742H298.629V71.5796L300.744 67.7632Z" fill="white"/>
<path fill-rule="evenodd" clip-rule="evenodd" d="M286.147 69.8906L287.947 73.6742H286.216L285.049 71.1592L284.449 71.9274V73.7122L282.971 73.6742V67.7632H284.449V69.8714L285.951 67.7632H287.809L286.147 69.8906Z" fill="white"/>
<path fill-rule="evenodd" clip-rule="evenodd" d="M294.362 72.2624H291.697V67.7632H290.219V73.6742H294.362V72.2624Z" fill="white"/>
<path fill-rule="evenodd" clip-rule="evenodd" d="M260.301 67.8316L261.919 67.8139L262.355 70.708L262.931 67.803H264.324L264.9 70.708L265.337 67.8139L266.954 67.8316L265.722 73.6741H264.236L263.628 70.68L263.019 73.6741H261.533L260.301 67.8316Z" fill="white"/>
</svg>
